<svg width="2035" height="384" viewBox="0 0 2035 384" fill="none" xmlns="http://www.w3.org/2000/svg">
<path fill-rule="evenodd" clip-rule="evenodd" d="M2033.59 1.40454C2033.64 2.56954 2033.88 2.80652 2034.2 2.00952C2034.49 1.28752 2034.45 0.424531 2034.12 0.0925307C2033.79 -0.239469 2033.55 0.350542 2033.59 1.40454ZM2033.59 18.4045C2033.64 19.5695 2033.88 19.8065 2034.2 19.0095C2034.49 18.2875 2034.45 17.4245 2034.12 17.0925C2033.79 16.7605 2033.55 17.3505 2033.59 18.4045ZM708.92 24.0735L706.514 25.9666V162.46C706.514 254.636 706.85 299.582 707.549 300.888C708.56 302.777 710.592 302.822 795.492 302.822H882.401L883.957 300.599C885.255 298.747 885.514 294.608 885.514 275.722C885.514 255.887 885.309 252.896 883.864 251.697C882.52 250.582 871.872 250.27 826.639 250.016C796.073 249.845 770.828 249.469 770.539 249.181C770.25 248.892 769.892 198.543 769.743 137.295L769.472 25.9335L766.99 23.9815C764.665 22.1525 762.841 22.0345 737.918 22.1055C713.409 22.1755 711.138 22.3295 708.92 24.0735ZM2.47296 27.3646L0.0139771 29.9825V165.298C0.0139771 297.969 0.0519609 300.654 1.95996 302.763L3.90698 304.914L90.46 304.57C186.165 304.189 185.723 304.216 202.983 297.599C226.621 288.536 240.046 272.36 246.13 245.612C248.364 235.792 247.532 209.477 244.682 199.787C239.274 181.399 227.92 167.151 212.647 159.586L206.279 156.432L210.147 153.426C221.091 144.919 228.494 133.249 232.101 118.822C234.868 107.751 234.635 86.3005 231.624 74.9355C226.044 53.8755 215.034 41.0595 195.311 32.6675C191.521 31.0545 184.953 28.7636 180.717 27.5756C173.152 25.4556 171.506 25.4105 88.973 25.0815L4.93298 24.7476L2.47296 27.3646ZM2033.59 55.4045C2033.64 56.5695 2033.88 56.8065 2034.2 56.0095C2034.49 55.2875 2034.45 54.4245 2034.12 54.0925C2033.79 53.7605 2033.55 54.3505 2033.59 55.4045ZM154.637 78.6436C159.374 80.2146 166.812 86.8216 168.975 91.3806C169.918 93.3676 171.108 97.9496 171.62 101.563C173.925 117.841 164.561 131.528 148.981 134.657C145.154 135.426 129.796 135.822 103.847 135.822H64.514V106.989C64.514 91.1295 64.84 77.8285 65.238 77.4305C66.51 76.1585 150.583 77.2996 154.637 78.6436ZM340.514 92.8975C306.131 96.6905 281.859 100.711 277.978 103.254L275.209 105.068L275.899 126.695C276.439 143.615 276.906 148.64 278.047 149.782C279.326 151.062 283.482 150.722 311.76 147.022C349.066 142.14 365.118 141.106 378.337 142.733C389.234 144.074 395.425 146.677 399.512 151.635C402.65 155.443 404.867 163.455 404.329 169.045L404.014 172.322L364.014 172.945C310.152 173.785 297.99 175.762 282.195 186.246C267.214 196.189 260.006 210.893 258.854 233.854C257.113 268.585 269.465 289.945 297.83 301.254C306.491 304.707 322.54 306.911 339.514 306.98C357.109 307.052 361.953 306.638 373.014 304.12C384.422 301.524 395.83 295.688 404.511 288.009C406.434 286.308 408.285 285.232 408.624 285.619C409.744 286.896 411.514 293.075 411.518 295.721C411.52 297.152 412.365 299.705 413.395 301.394L415.268 304.467L438.641 304.571C458.647 304.66 462.266 304.447 463.764 303.094C465.4 301.615 465.514 296.825 465.514 229.739C465.514 185.383 465.114 154.979 464.467 150.144C460.42 119.911 442.806 101.902 410.25 94.7125C402.595 93.0225 396.565 92.6115 375.014 92.3165C360.714 92.1205 345.189 92.3815 340.514 92.8975ZM979.514 92.8475C956.86 95.0995 936.859 104.041 923.287 117.981C913.38 128.157 904.585 142.906 900.46 156.262C896.123 170.304 895.121 178.521 895.089 200.322C895.062 218.436 895.363 222.696 897.281 231.322C902.164 253.281 908.685 265.956 922.014 279.399C929.316 286.762 932.712 289.34 940.014 293.059C956.855 301.637 973.082 305.491 996.514 306.477C1023.06 307.595 1043.69 303.808 1063.43 294.192C1073.75 289.166 1075.78 287.697 1084.54 278.976C1092.92 270.625 1094.85 268.04 1098.83 259.822C1104.75 247.599 1107.07 240.122 1109.52 225.322C1112.95 204.639 1111.7 179.631 1106.12 157.654C1097.11 122.11 1069.21 97.9935 1031.19 92.8745C1022.51 91.7055 991.163 91.6885 979.514 92.8475ZM1192.01 93.7045C1172.06 98.2705 1159.1 106.322 1147.55 121.322C1135.91 136.439 1130.09 158.079 1128.9 190.68C1127.97 216.058 1130.37 236.134 1136.05 250.309C1146.69 276.909 1163.51 290.423 1194.01 296.877C1203.68 298.921 1233.35 298.675 1243.01 296.469C1251.24 294.591 1272.79 284.311 1275.25 281.09C1277.47 278.19 1278.02 280.779 1277.9 293.658C1277.81 304.093 1277.43 307.137 1275.74 310.951C1273.15 316.79 1267.53 322.459 1261.6 325.199L1257.01 327.322L983.3 327.822C741.773 328.263 709.41 328.498 708.095 329.822C706.926 330.998 706.584 334.349 706.509 345.322C706.306 375.342 706.325 375.633 708.629 377.937L710.744 380.052L1045.38 379.644C1324.71 379.304 1380.43 379.012 1382.51 377.879C1385.12 376.465 1406.34 359.655 1410.26 355.899C1413.31 352.977 1413.1 351.355 1409.26 348.415C1407.48 347.044 1403.09 343.68 1399.51 340.94C1395.94 338.199 1390.31 334.239 1387.01 332.139L1381.01 328.322L1360.01 327.822L1339.01 327.322L1339.17 323.822C1339.25 321.897 1339.8 315.597 1340.38 309.822C1341.04 303.231 1341.44 261.84 1341.45 198.65C1341.46 103.211 1341.37 97.8625 1339.66 95.7565C1337.89 93.5665 1337.52 93.5365 1313.53 93.6235C1294.14 93.6945 1288.91 93.9965 1287.8 95.1075C1287.03 95.8745 1285.76 99.5825 1284.97 103.349C1284.18 107.115 1283.18 110.558 1282.73 111.001C1282.29 111.444 1278.8 109.777 1274.97 107.297C1265.51 101.168 1256.69 97.0826 1247.62 94.6306C1236.48 91.6206 1203.52 91.0715 1192.01 93.7045ZM470.737 95.3785C467.745 97.4735 467.92 99.6535 471.938 110.272C473.821 115.25 476.776 123.372 478.505 128.322C480.234 133.272 482.048 138.222 482.537 139.322C483.027 140.422 487.072 150.997 491.526 162.822C495.981 174.647 500.017 185.222 500.494 186.322C501.341 188.271 510.526 212.312 515.014 224.322C526.992 256.382 540.352 289.795 543.046 294.432C544.822 297.488 546.719 299.094 550.446 300.697C555.258 302.768 555.434 302.982 554.855 306.088C552.523 318.613 544.4 326.749 530.976 330.007C527.19 330.926 464.252 331.288 265.433 331.535C5.57199 331.858 4.84598 331.864 2.68298 333.879C0.584983 335.833 0.513977 336.62 0.513977 357.79C0.513977 381.289 0.679985 382.087 5.83398 383.355C7.03298 383.651 128.389 383.724 275.514 383.519C474.821 383.241 544.671 382.845 549.514 381.969C568.141 378.598 580.922 372.526 591.606 361.972C600.083 353.599 603.815 347.904 608.564 336.089C610.282 331.817 612.054 327.422 612.503 326.322C612.952 325.222 614.304 321.622 615.508 318.322C616.712 315.022 618.314 310.747 619.068 308.822C619.821 306.897 622.296 300.147 624.565 293.822C626.835 287.497 629.072 281.422 629.536 280.322C630.82 277.281 640.034 252.304 643.002 243.822C644.446 239.697 646.007 235.422 646.473 234.322C646.938 233.222 648.307 229.622 649.514 226.322C650.721 223.022 652.107 219.422 652.594 218.322C653.489 216.3 659.911 199.038 672.682 164.322C676.527 153.872 682.076 139.022 685.014 131.322C696.17 102.082 696.693 100.424 695.648 97.6725C694.767 95.3555 694.012 95.0535 687.843 94.5385C684.087 94.2255 671.005 94.0585 658.771 94.1665C638.07 94.3495 636.394 94.4995 634.587 96.3425C633.519 97.4305 629.21 107.997 625.011 119.822C620.812 131.647 616.087 144.922 614.511 149.322C610.581 160.296 597.687 197.431 590.033 219.822C582.548 241.717 582.507 241.822 581.568 241.822C581.165 241.822 579.898 238.559 578.752 234.572C577.606 230.585 572.769 216.072 568.004 202.322C557.3 171.438 550.318 151.004 541.959 126.1C532.985 99.3645 531.627 95.9525 529.506 94.8175C528.401 94.2255 516.544 93.8215 500.302 93.8215C477.173 93.8215 472.616 94.0615 470.737 95.3785ZM1020.51 145.46C1035.63 149.635 1043.04 159.107 1047.02 179.322C1048.46 186.655 1048.67 191.192 1048.17 203.822C1047.48 221.256 1046.09 228.413 1042.04 235.469C1034.88 247.945 1025.35 253.292 1008.36 254.371C991.288 255.455 974.711 250.866 969.38 243.581C959.778 230.459 956.035 210.72 958.411 185.731C960.557 163.157 966.987 152.652 982.514 146.357C990.798 142.999 1009.96 142.546 1020.51 145.46ZM1245.63 146.257C1262.12 147.104 1269.03 151.014 1275.06 162.916C1278.58 169.86 1279.44 178.023 1279.15 201.822C1278.92 220.827 1278.73 222.708 1276.57 227.616C1273.73 234.042 1268.15 239.047 1260.59 241.946C1256.05 243.69 1252.13 244.178 1239.41 244.582C1216.79 245.3 1208.15 243.49 1200.68 236.46C1196.4 232.443 1194.16 228.034 1192 219.404C1190.54 213.576 1190.35 209.481 1190.82 193.404C1191.12 182.909 1191.86 172.297 1192.46 169.822C1194.8 160.193 1200.36 152.473 1207.62 148.768C1211.63 146.724 1224.25 144.977 1231.51 145.463C1233.99 145.628 1240.34 145.985 1245.63 146.257ZM165.848 188.846C173.194 191.594 179.682 197.489 182.563 204.034C184.498 208.428 184.902 211.097 184.953 219.822C185.008 229.371 184.76 230.84 182.208 236.036C180.642 239.224 177.412 243.502 174.902 245.711C166.788 252.854 167.067 252.822 112.836 252.822H64.514V219.989C64.514 201.93 64.701 186.968 64.93 186.739C65.159 186.51 86.731 186.43 112.867 186.562C157.946 186.79 160.668 186.908 165.848 188.846ZM404.35 230.15C404.052 240.19 403.738 241.879 401.588 245.013C398.603 249.364 392.548 253.113 383.723 256.072C377.656 258.107 375.1 258.322 357.014 258.322C339.418 258.322 336.593 258.098 333.514 256.458C325.148 252.002 321.514 246.155 321.514 237.15C321.514 231.22 322.982 227.575 326.812 223.998C331.721 219.414 335.67 218.96 371.35 218.889L404.686 218.822L404.35 230.15Z" fill="url(#paint0_linear_8_84)"/>
<path fill-rule="evenodd" clip-rule="evenodd" d="M2033.59 1.40454C2033.64 2.56954 2033.88 2.80652 2034.2 2.00952C2034.49 1.28752 2034.45 0.424531 2034.12 0.0925307C2033.79 -0.239469 2033.55 0.350542 2033.59 1.40454ZM2033.59 18.4045C2033.64 19.5695 2033.88 19.8065 2034.2 19.0095C2034.49 18.2875 2034.45 17.4245 2034.12 17.0925C2033.79 16.7605 2033.55 17.3505 2033.59 18.4045ZM708.92 24.0735L706.514 25.9666V162.46C706.514 254.636 706.85 299.582 707.549 300.888C708.56 302.777 710.592 302.822 795.492 302.822H882.401L883.957 300.599C885.255 298.747 885.514 294.608 885.514 275.722C885.514 255.887 885.309 252.896 883.864 251.697C882.52 250.582 871.872 250.27 826.639 250.016C796.073 249.845 770.828 249.469 770.539 249.181C770.25 248.892 769.892 198.543 769.743 137.295L769.472 25.9335L766.99 23.9815C764.665 22.1525 762.841 22.0345 737.918 22.1055C713.409 22.1755 711.138 22.3295 708.92 24.0735ZM3.38599 26.5715C2.11699 28.1905 2.16398 28.2116 4.01398 26.8546C5.11398 26.0476 6.20197 25.2606 6.43097 25.1046C6.65997 24.9486 6.37698 24.8215 5.80298 24.8215C5.22898 24.8215 4.14099 25.6095 3.38599 26.5715ZM159.282 25.5465C161.079 25.7685 163.779 25.7646 165.282 25.5366C166.785 25.3076 165.314 25.1255 162.014 25.1315C158.714 25.1365 157.485 25.3235 159.282 25.5465ZM172.327 26.5045C173.048 26.7935 173.911 26.7575 174.243 26.4255C174.575 26.0935 173.985 25.8575 172.931 25.9005C171.766 25.9485 171.529 26.1855 172.327 26.5045ZM0 165.322C0 239.022 0.118977 269.024 0.263977 231.994C0.408977 194.964 0.408977 134.664 0.263977 97.9935C0.118977 61.3235 0 91.6215 0 165.322ZM207.514 39.1995C207.514 39.4065 208.302 40.1945 209.264 40.9495C210.85 42.1925 210.885 42.1575 209.642 40.5715C208.335 38.9055 207.514 38.3765 207.514 39.1995ZM216.014 46.8215C218.162 49.0215 220.145 50.8215 220.42 50.8215C220.695 50.8215 219.162 49.0215 217.014 46.8215C214.866 44.6215 212.883 42.8215 212.608 42.8215C212.333 42.8215 213.866 44.6215 216.014 46.8215ZM220.514 52.1995C220.514 52.4065 221.302 53.1945 222.264 53.9495C223.85 55.1925 223.885 55.1575 222.642 53.5715C221.335 51.9055 220.514 51.3765 220.514 52.1995ZM2033.59 55.4045C2033.64 56.5695 2033.88 56.8065 2034.2 56.0095C2034.49 55.2875 2034.45 54.4245 2034.12 54.0925C2033.79 53.7605 2033.55 54.3505 2033.59 55.4045ZM223.514 56.7625C223.514 57.2805 223.959 57.9785 224.503 58.3145C225.069 58.6645 225.237 58.2635 224.896 57.3735C224.231 55.6415 223.514 55.3245 223.514 56.7625ZM227.545 64.3215C227.545 64.8715 227.981 65.9965 228.514 66.8215C229.047 67.6465 229.483 67.8715 229.483 67.3215C229.483 66.7715 229.047 65.6465 228.514 64.8215C227.981 63.9965 227.545 63.7715 227.545 64.3215ZM65.021 76.8105C64.671 77.3765 65.072 77.5446 65.962 77.2036C67.694 76.5386 68.011 75.8215 66.573 75.8215C66.055 75.8215 65.357 76.2665 65.021 76.8105ZM72.264 76.4835C72.952 76.7615 74.077 76.7615 74.764 76.4835C75.452 76.2065 74.889 75.9796 73.514 75.9796C72.139 75.9796 71.577 76.2065 72.264 76.4835ZM78.264 76.4835C78.952 76.7615 80.077 76.7615 80.764 76.4835C81.452 76.2065 80.889 75.9796 79.514 75.9796C78.139 75.9796 77.577 76.2065 78.264 76.4835ZM106.264 76.5685C112.452 76.7435 122.577 76.7435 128.764 76.5685C134.952 76.3925 129.889 76.2495 117.514 76.2495C105.139 76.2495 100.077 76.3925 106.264 76.5685ZM147.264 77.4835C147.952 77.7615 149.077 77.7615 149.764 77.4835C150.452 77.2065 149.889 76.9796 148.514 76.9796C147.139 76.9796 146.577 77.2065 147.264 77.4835ZM232.709 83.3215C232.729 84.9715 232.953 85.5256 233.207 84.5526C233.461 83.5796 233.444 82.2296 233.17 81.5526C232.896 80.8756 232.689 81.6715 232.709 83.3215ZM164.514 85.3215C165.806 86.6965 167.088 87.8215 167.363 87.8215C167.638 87.8215 166.806 86.6965 165.514 85.3215C164.222 83.9465 162.94 82.8215 162.665 82.8215C162.39 82.8215 163.222 83.9465 164.514 85.3215ZM233.863 97.8215C233.863 102.497 234.036 104.409 234.246 102.072C234.457 99.7345 234.457 95.9085 234.246 93.5715C234.036 91.2345 233.863 93.1465 233.863 97.8215ZM351.282 92.5465C353.079 92.7685 355.779 92.7646 357.282 92.5366C358.785 92.3076 357.314 92.1255 354.014 92.1315C350.714 92.1365 349.485 92.3235 351.282 92.5465ZM387.783 92.5145C388.756 92.7685 390.106 92.7515 390.783 92.4775C391.46 92.2035 390.664 91.9965 389.014 92.0165C387.364 92.0365 386.81 92.2605 387.783 92.5145ZM979.514 92.8475C956.86 95.0995 936.859 104.041 923.287 117.981C913.38 128.157 904.585 142.906 900.46 156.262C896.123 170.304 895.121 178.521 895.089 200.322C895.062 218.436 895.363 222.696 897.281 231.322C902.164 253.281 908.685 265.956 922.014 279.399C929.316 286.762 932.712 289.34 940.014 293.059C956.855 301.637 973.082 305.491 996.514 306.477C1023.06 307.595 1043.69 303.808 1063.43 294.192C1073.75 289.166 1075.78 287.697 1084.54 278.976C1092.92 270.625 1094.85 268.04 1098.83 259.822C1104.75 247.599 1107.07 240.122 1109.52 225.322C1112.95 204.639 1111.7 179.631 1106.12 157.654C1097.11 122.11 1069.21 97.9935 1031.19 92.8745C1022.51 91.7055 991.163 91.6885 979.514 92.8475ZM1192.01 93.7045C1172.06 98.2705 1159.1 106.322 1147.55 121.322C1135.91 136.439 1130.09 158.079 1128.9 190.68C1127.97 216.058 1130.37 236.134 1136.05 250.309C1146.69 276.909 1163.51 290.423 1194.01 296.877C1203.68 298.921 1233.35 298.675 1243.01 296.469C1251.24 294.591 1272.79 284.311 1275.25 281.09C1277.47 278.19 1278.02 280.779 1277.9 293.658C1277.81 304.093 1277.43 307.137 1275.74 310.951C1273.15 316.79 1267.53 322.459 1261.6 325.199L1257.01 327.322L983.3 327.822C741.773 328.263 709.41 328.498 708.095 329.822C706.926 330.998 706.584 334.349 706.509 345.322C706.306 375.342 706.325 375.633 708.629 377.937L710.744 380.052L1045.38 379.644C1324.71 379.304 1380.43 379.012 1382.51 377.879C1385.12 376.465 1406.34 359.655 1410.26 355.899C1413.31 352.977 1413.1 351.355 1409.26 348.415C1407.48 347.044 1403.09 343.68 1399.51 340.94C1395.94 338.199 1390.31 334.239 1387.01 332.139L1381.01 328.322L1360.01 327.822L1339.01 327.322L1339.17 323.822C1339.25 321.897 1339.8 315.597 1340.38 309.822C1341.04 303.231 1341.44 261.84 1341.45 198.65C1341.46 103.211 1341.37 97.8625 1339.66 95.7565C1337.89 93.5665 1337.52 93.5365 1313.53 93.6235C1294.14 93.6945 1288.91 93.9965 1287.8 95.1075C1287.03 95.8745 1285.76 99.5825 1284.97 103.349C1284.18 107.115 1283.18 110.558 1282.73 111.001C1282.29 111.444 1278.8 109.777 1274.97 107.297C1265.51 101.168 1256.69 97.0826 1247.62 94.6306C1236.47 91.6206 1203.52 91.0715 1192.01 93.7045ZM340.276 93.5285C341.52 93.7675 343.32 93.7585 344.276 93.5085C345.232 93.2585 344.214 93.0625 342.014 93.0735C339.814 93.0845 339.032 93.2895 340.276 93.5285ZM397.764 93.5106C398.727 93.7626 400.301 93.7626 401.264 93.5106C402.227 93.2596 401.439 93.0535 399.514 93.0535C397.589 93.0535 396.801 93.2596 397.764 93.5106ZM329.264 94.5275C330.501 94.7655 332.527 94.7655 333.764 94.5275C335.001 94.2885 333.989 94.0935 331.514 94.0935C329.039 94.0935 328.027 94.2885 329.264 94.5275ZM405.264 94.4835C405.952 94.7615 407.077 94.7615 407.764 94.4835C408.452 94.2065 407.889 93.9796 406.514 93.9796C405.139 93.9796 404.577 94.2065 405.264 94.4835ZM486.264 94.5695C494.102 94.7385 506.926 94.7385 514.764 94.5695C522.602 94.4005 516.189 94.2625 500.514 94.2625C484.839 94.2625 478.426 94.4005 486.264 94.5695ZM651.264 94.5585C654.152 94.7605 658.876 94.7605 661.764 94.5585C664.652 94.3565 662.289 94.1915 656.514 94.1915C650.739 94.1915 648.376 94.3565 651.264 94.5585ZM669.764 94.5375C671.277 94.7665 673.751 94.7665 675.264 94.5375C676.777 94.3085 675.539 94.1215 672.514 94.1215C669.489 94.1215 668.251 94.3085 669.764 94.5375ZM681.264 94.4835C681.952 94.7615 683.077 94.7615 683.764 94.4835C684.452 94.2065 683.889 93.9796 682.514 93.9796C681.139 93.9796 680.577 94.2065 681.264 94.4835ZM320.264 95.4835C320.952 95.7615 322.077 95.7615 322.764 95.4835C323.452 95.2065 322.889 94.9796 321.514 94.9796C320.139 94.9796 319.577 95.2065 320.264 95.4835ZM469.386 96.5715C468.143 98.1575 468.178 98.1925 469.764 96.9495C470.727 96.1945 471.514 95.4065 471.514 95.1995C471.514 94.3765 470.693 94.9055 469.386 96.5715ZM693.725 96.2205C694.434 96.9905 695.172 97.4705 695.364 97.2875C695.957 96.7235 694.454 94.8215 693.416 94.8215C692.876 94.8215 693.015 95.4515 693.725 96.2205ZM313.327 96.5045C314.048 96.7935 314.911 96.7575 315.243 96.4255C315.575 96.0935 314.985 95.8575 313.931 95.9005C312.766 95.9485 312.529 96.1855 313.327 96.5045ZM415.327 96.5045C416.048 96.7935 416.911 96.7575 417.243 96.4255C417.575 96.0935 416.985 95.8575 415.931 95.9005C414.766 95.9485 414.529 96.1855 415.327 96.5045ZM305.783 97.5145C306.756 97.7685 308.106 97.7515 308.783 97.4775C309.46 97.2035 308.664 96.9965 307.014 97.0165C305.364 97.0365 304.81 97.2605 305.783 97.5145ZM299.264 98.4835C299.952 98.7615 301.077 98.7615 301.764 98.4835C302.452 98.2065 301.889 97.9796 300.514 97.9796C299.139 97.9796 298.577 98.2065 299.264 98.4835ZM531.514 98.7625C531.514 99.2805 531.959 99.9785 532.503 100.315C533.069 100.665 533.237 100.264 532.896 99.3735C532.231 97.6415 531.514 97.3245 531.514 98.7625ZM294.264 99.4835C294.952 99.7615 296.077 99.7615 296.764 99.4835C297.452 99.2065 296.889 98.9796 295.514 98.9796C294.139 98.9796 293.577 99.2065 294.264 99.4835ZM695.593 100.405C695.641 101.57 695.878 101.807 696.197 101.01C696.486 100.288 696.45 99.4245 696.118 99.0925C695.786 98.7605 695.55 99.3505 695.593 100.405ZM171.709 102.322C171.729 103.972 171.953 104.526 172.207 103.553C172.461 102.58 172.444 101.23 172.17 100.553C171.896 99.8756 171.689 100.672 171.709 102.322ZM287.264 100.484C287.952 100.762 289.077 100.762 289.764 100.484C290.452 100.207 289.889 99.9796 288.514 99.9796C287.139 99.9796 286.577 100.207 287.264 100.484ZM427.514 100.822C428.339 101.355 429.464 101.791 430.014 101.791C430.564 101.791 430.339 101.355 429.514 100.822C428.689 100.289 427.564 99.8525 427.014 99.8525C426.464 99.8525 426.689 100.289 427.514 100.822ZM282.264 101.484C282.952 101.762 284.077 101.762 284.764 101.484C285.452 101.207 284.889 100.98 283.514 100.98C282.139 100.98 281.577 101.207 282.264 101.484ZM431.514 102.271C431.514 102.546 432.864 103.469 434.514 104.322C436.164 105.175 437.514 105.648 437.514 105.373C437.514 105.098 436.164 104.175 434.514 103.322C432.864 102.469 431.514 101.996 431.514 102.271ZM276.714 104.022C275.876 104.86 275.58 109.307 275.732 118.772L275.951 132.322L276.263 118.888C276.443 111.121 277.035 104.899 277.667 104.138C279.033 102.492 278.33 102.406 276.714 104.022ZM693.973 104.889C693.61 105.475 693.528 106.17 693.79 106.432C694.052 106.694 694.533 106.214 694.859 105.365C695.535 103.603 694.959 103.293 693.973 104.889ZM535.545 109.322C535.545 109.872 535.981 110.997 536.514 111.822C537.047 112.647 537.483 112.872 537.483 112.322C537.483 111.772 537.047 110.647 536.514 109.822C535.981 108.997 535.545 108.772 535.545 109.322ZM232.672 112.822C232.672 114.197 232.899 114.76 233.176 114.072C233.454 113.385 233.454 112.26 233.176 111.572C232.899 110.885 232.672 111.447 232.672 112.822ZM473.545 114.322C473.545 114.872 473.981 115.997 474.514 116.822C475.047 117.647 475.483 117.872 475.483 117.322C475.483 116.772 475.047 115.647 474.514 114.822C473.981 113.997 473.545 113.772 473.545 114.322ZM537.6 115.322C537.704 117.216 539.37 120.406 539.428 118.822C539.459 117.997 539.047 116.647 538.514 115.822C537.981 114.997 537.569 114.772 537.6 115.322ZM451.014 117.822C452.009 118.922 453.049 119.822 453.324 119.822C453.599 119.822 453.009 118.922 452.014 117.822C451.019 116.722 449.979 115.822 449.704 115.822C449.429 115.822 450.019 116.722 451.014 117.822ZM689.138 118.361C688.173 120.875 688.457 121.524 689.636 119.497C690.22 118.493 690.487 117.461 690.229 117.204C689.972 116.946 689.48 117.467 689.138 118.361ZM475.593 120.405C475.641 121.57 475.878 121.807 476.197 121.01C476.486 120.288 476.45 119.425 476.118 119.093C475.786 118.761 475.55 119.351 475.593 120.405ZM539.6 121.322C539.704 123.216 541.37 126.406 541.428 124.822C541.459 123.997 541.047 122.647 540.514 121.822C539.981 120.997 539.569 120.772 539.6 121.322ZM164.438 126.572L162.014 129.322L164.764 126.898C167.334 124.632 167.973 123.822 167.188 123.822C167.009 123.822 165.772 125.059 164.438 126.572ZM622.138 127.361C621.173 129.875 621.457 130.524 622.636 128.497C623.22 127.493 623.487 126.461 623.229 126.204C622.972 125.946 622.48 126.467 622.138 127.361ZM457.514 128.763C457.514 129.281 457.959 129.979 458.503 130.315C459.069 130.665 459.237 130.264 458.896 129.374C458.231 127.642 457.514 127.325 457.514 128.763ZM146.327 135.505C147.048 135.794 147.911 135.758 148.243 135.426C148.575 135.094 147.985 134.858 146.931 134.901C145.766 134.949 145.529 135.186 146.327 135.505ZM65.264 136.484C65.952 136.762 67.077 136.762 67.764 136.484C68.452 136.207 67.889 135.98 66.514 135.98C65.139 135.98 64.577 136.207 65.264 136.484ZM87.828 136.571C97.075 136.736 111.925 136.735 120.828 136.57C129.73 136.404 122.164 136.269 104.014 136.27C85.864 136.27 78.58 136.405 87.828 136.571ZM140.264 136.484C140.952 136.762 142.077 136.762 142.764 136.484C143.452 136.207 142.889 135.98 141.514 135.98C140.139 135.98 139.577 136.207 140.264 136.484ZM481.514 137.763C481.514 138.281 481.959 138.979 482.503 139.315C483.069 139.665 483.237 139.264 482.896 138.374C482.231 136.642 481.514 136.325 481.514 137.763ZM618.138 138.361C617.173 140.875 617.457 141.524 618.636 139.497C619.22 138.493 619.487 137.461 619.229 137.204C618.972 136.946 618.48 137.467 618.138 138.361ZM461.684 138.822C461.7 139.647 462.074 141.447 462.514 142.822C463.158 144.832 463.32 144.93 463.344 143.322C463.36 142.222 462.987 140.422 462.514 139.322C461.987 138.097 461.666 137.903 461.684 138.822ZM349.276 142.529C350.52 142.768 352.32 142.759 353.276 142.509C354.232 142.259 353.214 142.063 351.014 142.074C348.814 142.085 348.032 142.29 349.276 142.529ZM376.276 142.529C377.52 142.768 379.32 142.759 380.276 142.509C381.232 142.259 380.214 142.063 378.014 142.074C375.814 142.085 375.032 142.29 376.276 142.529ZM335.264 143.484C335.952 143.762 337.077 143.762 337.764 143.484C338.452 143.207 337.889 142.98 336.514 142.98C335.139 142.98 334.577 143.207 335.264 143.484ZM1020.51 145.46C1035.63 149.635 1043.05 159.107 1047.02 179.322C1048.46 186.655 1048.67 191.192 1048.17 203.822C1047.48 221.256 1046.09 228.413 1042.04 235.469C1034.88 247.945 1025.35 253.292 1008.36 254.371C991.288 255.455 974.711 250.866 969.38 243.581C959.778 230.459 956.035 210.72 958.411 185.731C960.557 163.157 966.987 152.652 982.514 146.357C990.798 142.999 1009.96 142.546 1020.51 145.46ZM328.264 144.484C328.952 144.762 330.077 144.762 330.764 144.484C331.452 144.207 330.889 143.98 329.514 143.98C328.139 143.98 327.577 144.207 328.264 144.484ZM216.438 147.572L214.014 150.322L216.764 147.898C219.334 145.632 219.973 144.822 219.188 144.822C219.009 144.822 217.772 146.059 216.438 147.572ZM320.783 145.515C321.756 145.769 323.106 145.752 323.783 145.478C324.46 145.204 323.664 144.997 322.014 145.017C320.364 145.037 319.81 145.261 320.783 145.515ZM1245.63 146.257C1262.12 147.104 1269.03 151.014 1275.06 162.916C1278.58 169.86 1279.44 178.023 1279.15 201.822C1278.92 220.827 1278.73 222.708 1276.57 227.616C1273.73 234.042 1268.15 239.047 1260.59 241.946C1256.05 243.69 1252.12 244.178 1239.41 244.582C1216.79 245.3 1208.15 243.49 1200.68 236.46C1196.4 232.443 1194.16 228.034 1192 219.404C1190.54 213.576 1190.35 209.481 1190.82 193.404C1191.12 182.909 1191.86 172.297 1192.46 169.822C1194.8 160.193 1200.36 152.473 1207.62 148.768C1211.63 146.724 1224.25 144.977 1231.51 145.463C1233.99 145.628 1240.34 145.985 1245.63 146.257ZM314.327 146.505C315.048 146.794 315.911 146.758 316.243 146.426C316.575 146.094 315.985 145.858 314.931 145.901C313.766 145.949 313.529 146.186 314.327 146.505ZM678.138 147.361C677.173 149.875 677.457 150.524 678.636 148.497C679.22 147.493 679.487 146.461 679.229 146.204C678.972 145.946 678.48 146.467 678.138 147.361ZM305.264 147.484C305.952 147.762 307.077 147.762 307.764 147.484C308.452 147.207 307.889 146.98 306.514 146.98C305.139 146.98 304.577 147.207 305.264 147.484ZM463.746 149.822C463.746 151.747 463.952 152.534 464.203 151.572C464.455 150.61 464.455 149.034 464.203 148.072C463.952 147.11 463.746 147.897 463.746 149.822ZM485.545 147.322C485.545 147.872 485.981 148.997 486.514 149.822C487.047 150.647 487.483 150.872 487.483 150.322C487.483 149.772 487.047 148.647 486.514 147.822C485.981 146.997 485.545 146.772 485.545 147.322ZM277.74 149.401C278.69 150.392 279.682 150.988 279.945 150.725C280.208 150.462 279.431 149.651 278.219 148.922C276.112 147.657 276.091 147.679 277.74 149.401ZM297.783 148.515C298.756 148.769 300.106 148.752 300.783 148.478C301.46 148.204 300.664 147.997 299.014 148.017C297.364 148.037 296.81 148.261 297.783 148.515ZM398.499 150.329C402.481 155.125 402.817 155.435 401.729 153.311C401.163 152.205 399.645 150.408 398.357 149.318C396.097 147.406 396.102 147.442 398.499 150.329ZM292.327 149.505C293.048 149.794 293.911 149.758 294.243 149.426C294.575 149.094 293.985 148.858 292.931 148.901C291.766 148.949 291.529 149.186 292.327 149.505ZM612.138 155.361C611.173 157.875 611.457 158.524 612.636 156.497C613.22 155.493 613.487 154.461 613.229 154.204C612.972 153.946 612.48 154.467 612.138 155.361ZM464.896 166.322C464.898 172.922 465.06 175.492 465.255 172.033C465.451 168.574 465.45 163.174 465.252 160.033C465.054 156.892 464.894 159.722 464.896 166.322ZM551.593 156.405C551.641 157.57 551.878 157.807 552.197 157.01C552.486 156.288 552.45 155.425 552.118 155.093C551.786 154.761 551.55 155.351 551.593 156.405ZM673.973 158.889C673.61 159.475 673.528 160.17 673.79 160.432C674.052 160.694 674.533 160.214 674.859 159.365C675.535 157.603 674.959 157.293 673.973 158.889ZM403.593 161.405C403.641 162.57 403.878 162.807 404.197 162.01C404.486 161.288 404.45 160.425 404.118 160.093C403.786 159.761 403.55 160.351 403.593 161.405ZM554.593 165.405C554.641 166.57 554.878 166.807 555.197 166.01C555.486 165.288 555.45 164.425 555.118 164.093C554.786 163.761 554.55 164.351 554.593 165.405ZM369.014 172.822L334.014 173.361L368.705 173.592C391.006 173.74 403.617 173.465 404.014 172.822C404.354 172.272 404.493 171.926 404.323 172.052C404.153 172.179 388.264 172.526 369.014 172.822ZM668.138 174.361C667.173 176.875 667.457 177.524 668.636 175.497C669.22 174.493 669.487 173.461 669.229 173.204C668.972 172.946 668.48 173.467 668.138 174.361ZM321.764 174.511C322.727 174.763 324.301 174.763 325.264 174.511C326.227 174.26 325.439 174.054 323.514 174.054C321.589 174.054 320.801 174.26 321.764 174.511ZM496.078 175.115C496.454 176.101 497.013 176.656 497.321 176.348C497.629 176.041 497.322 175.234 496.638 174.555C495.65 173.575 495.536 173.69 496.078 175.115ZM314.264 175.484C314.952 175.762 316.077 175.762 316.764 175.484C317.452 175.207 316.889 174.98 315.514 174.98C314.139 174.98 313.577 175.207 314.264 175.484ZM306.327 176.505C307.048 176.794 307.911 176.758 308.243 176.426C308.575 176.094 307.985 175.858 306.931 175.901C305.766 175.949 305.529 176.186 306.327 176.505ZM302.327 177.505C303.048 177.794 303.911 177.758 304.243 177.426C304.575 177.094 303.985 176.858 302.931 176.901C301.766 176.949 301.529 177.186 302.327 177.505ZM604.593 177.49C604.55 178.133 604.255 179.483 603.938 180.49C603.391 182.231 603.42 182.234 604.509 180.534C605.14 179.551 605.434 178.201 605.164 177.534C604.809 176.659 604.65 176.647 604.593 177.49ZM559.6 179.822C559.569 180.647 559.981 181.997 560.514 182.822C561.695 184.65 561.695 183.071 560.514 180.322C559.947 179.003 559.636 178.833 559.6 179.822ZM289.514 181.822C288.689 182.355 288.464 182.791 289.014 182.791C289.564 182.791 290.689 182.355 291.514 181.822C292.339 181.289 292.564 180.853 292.014 180.853C291.464 180.853 290.339 181.289 289.514 181.822ZM499.514 184.763C499.514 185.281 499.959 185.979 500.503 186.315C501.069 186.665 501.237 186.264 500.896 185.374C500.231 183.642 499.514 183.325 499.514 184.763ZM69.264 186.545C71.052 186.767 73.976 186.767 75.764 186.545C77.552 186.324 76.089 186.142 72.514 186.142C68.939 186.142 67.476 186.324 69.264 186.545ZM80.764 186.511C81.726 186.763 83.302 186.763 84.264 186.511C85.226 186.26 84.439 186.054 82.514 186.054C80.589 186.054 79.802 186.26 80.764 186.511ZM88.764 186.511C89.726 186.763 91.302 186.763 92.264 186.511C93.226 186.26 92.439 186.054 90.514 186.054C88.589 186.054 87.802 186.26 88.764 186.511ZM95.327 186.505C96.048 186.794 96.911 186.758 97.243 186.426C97.575 186.094 96.985 185.858 95.931 185.901C94.766 185.949 94.529 186.186 95.327 186.505ZM114.794 186.558C117.423 186.765 121.473 186.762 123.794 186.553C126.115 186.343 123.964 186.174 119.014 186.177C114.064 186.18 112.165 186.352 114.794 186.558ZM135.764 186.565C140.027 186.753 147.001 186.753 151.264 186.565C155.527 186.378 152.039 186.224 143.514 186.224C134.989 186.224 131.501 186.378 135.764 186.565ZM63.672 189.822C63.672 191.197 63.899 191.76 64.176 191.072C64.454 190.385 64.454 189.26 64.176 188.572C63.899 187.885 63.672 188.447 63.672 189.822ZM167.514 189.215C167.514 189.431 168.212 189.876 169.066 190.204C169.956 190.545 170.357 190.377 170.007 189.811C169.42 188.86 167.514 188.405 167.514 189.215ZM274.46 192.572L271.014 196.322L274.764 192.876C278.254 189.668 278.974 188.822 278.21 188.822C278.043 188.822 276.356 190.51 274.46 192.572ZM501.545 189.322C501.545 189.872 501.981 190.997 502.514 191.822C503.047 192.647 503.483 192.872 503.483 192.322C503.483 191.772 503.047 190.647 502.514 189.822C501.981 188.997 501.545 188.772 501.545 189.322ZM600.138 190.361C599.173 192.875 599.457 193.524 600.636 191.497C601.22 190.493 601.487 189.461 601.229 189.204C600.972 188.946 600.48 189.467 600.138 190.361ZM563.6 191.322C563.704 193.216 565.37 196.406 565.428 194.822C565.459 193.997 565.047 192.647 564.514 191.822C563.981 190.997 563.569 190.772 563.6 191.322ZM241.6 192.322C241.704 194.216 243.37 197.406 243.428 195.822C243.459 194.997 243.047 193.647 242.514 192.822C241.981 191.997 241.569 191.772 241.6 192.322ZM178.087 196.916C179.697 198.893 181.216 200.341 181.463 200.134C181.71 199.927 180.392 198.31 178.535 196.54L175.159 193.322L178.087 196.916ZM503.545 194.322C503.545 194.872 503.981 195.997 504.514 196.822C505.047 197.647 505.483 197.872 505.483 197.322C505.483 196.772 505.047 195.647 504.514 194.822C503.981 193.997 503.545 193.772 503.545 194.322ZM63.593 196.405C63.641 197.57 63.878 197.807 64.197 197.01C64.486 196.288 64.45 195.425 64.118 195.093C63.786 194.761 63.55 195.351 63.593 196.405ZM243.593 199.405C243.641 200.57 243.878 200.807 244.197 200.01C244.486 199.288 244.45 198.425 244.118 198.093C243.786 197.761 243.55 198.351 243.593 199.405ZM268.386 199.572C267.143 201.158 267.178 201.193 268.764 199.95C270.43 198.643 270.959 197.822 270.136 197.822C269.929 197.822 269.141 198.61 268.386 199.572ZM63.948 224.322C63.947 238.072 64.088 243.836 64.261 237.13C64.433 230.425 64.434 219.175 64.262 212.13C64.09 205.086 63.948 210.572 63.948 224.322ZM596.138 201.361C595.173 203.875 595.457 204.524 596.636 202.497C597.22 201.493 597.487 200.461 597.229 200.204C596.972 199.946 596.48 200.467 596.138 201.361ZM182.078 203.115C182.454 204.101 183.013 204.656 183.321 204.348C183.629 204.041 183.322 203.234 182.638 202.555C181.65 201.575 181.536 201.69 182.078 203.115ZM266.078 203.529C265.536 204.954 265.65 205.069 266.638 204.089C267.322 203.41 267.629 202.603 267.321 202.296C267.013 201.988 266.454 202.543 266.078 203.529ZM245.709 207.322C245.729 208.972 245.953 209.526 246.207 208.553C246.461 207.58 246.444 206.23 246.17 205.553C245.896 204.876 245.689 205.672 245.709 207.322ZM594.593 205.49C594.55 206.133 594.255 207.483 593.938 208.49C593.391 210.231 593.42 210.234 594.509 208.534C595.14 207.551 595.434 206.201 595.164 205.534C594.809 204.659 594.65 204.647 594.593 205.49ZM656.138 206.361C655.795 207.254 655.543 208.511 655.577 209.154C655.612 209.796 656.072 209.244 656.599 207.927C657.126 206.609 657.378 205.353 657.159 205.134C656.94 204.915 656.48 205.467 656.138 206.361ZM184.709 211.322C184.729 212.972 184.953 213.526 185.207 212.553C185.461 211.58 185.444 210.23 185.17 209.553C184.896 208.876 184.689 209.672 184.709 211.322ZM262.085 212.393C261.718 213.859 261.61 215.251 261.845 215.487C262.081 215.722 262.575 214.716 262.943 213.251C263.31 211.785 263.418 210.393 263.183 210.157C262.947 209.922 262.453 210.928 262.085 212.393ZM246.786 216.822C246.786 219.297 246.981 220.309 247.22 219.072C247.458 217.835 247.458 215.809 247.22 214.572C246.981 213.335 246.786 214.347 246.786 216.822ZM571.545 215.322C571.545 215.872 571.981 216.997 572.514 217.822C573.047 218.647 573.483 218.872 573.483 218.322C573.483 217.772 573.047 216.647 572.514 215.822C571.981 214.997 571.545 214.772 571.545 215.322ZM512.6 217.822C512.569 218.647 512.981 219.997 513.514 220.822C514.695 222.65 514.695 221.071 513.514 218.322C512.947 217.003 512.636 216.833 512.6 217.822ZM343.327 218.505C344.048 218.794 344.911 218.758 345.243 218.426C345.575 218.094 344.985 217.858 343.931 217.901C342.766 217.949 342.529 218.186 343.327 218.505ZM350.764 218.55C352.827 218.766 356.202 218.766 358.264 218.55C360.327 218.335 358.639 218.158 354.514 218.158C350.389 218.158 348.702 218.335 350.764 218.55ZM363.764 218.511C364.727 218.763 366.301 218.763 367.264 218.511C368.227 218.26 367.439 218.054 365.514 218.054C363.589 218.054 362.801 218.26 363.764 218.511ZM381.764 218.565C386.027 218.753 393.001 218.753 397.264 218.565C401.527 218.378 398.039 218.224 389.514 218.224C380.989 218.224 377.501 218.378 381.764 218.565ZM185.672 221.822C185.672 223.197 185.899 223.76 186.176 223.072C186.454 222.385 186.454 221.26 186.176 220.572C185.899 219.885 185.672 220.447 185.672 221.822ZM259.672 221.822C259.672 223.197 259.899 223.76 260.176 223.072C260.454 222.385 260.454 221.26 260.176 220.572C259.899 219.885 259.672 220.447 259.672 221.822ZM325.951 224.072L323.014 227.322L326.509 224.322C328.431 222.672 330.194 221.21 330.426 221.072C330.658 220.934 330.407 220.822 329.868 220.822C329.329 220.822 327.566 222.284 325.951 224.072ZM575.545 226.322C575.545 226.872 575.981 227.997 576.514 228.822C577.047 229.647 577.483 229.872 577.483 229.322C577.483 228.772 577.047 227.647 576.514 226.822C575.981 225.997 575.545 225.772 575.545 226.322ZM587.138 227.361C586.173 229.875 586.457 230.524 587.636 228.497C588.22 227.493 588.487 226.461 588.229 226.204C587.972 225.946 587.48 226.467 587.138 227.361ZM258.892 239.822C258.892 246.147 259.055 248.735 259.253 245.572C259.451 242.409 259.451 237.235 259.253 234.072C259.055 230.909 258.892 233.497 258.892 239.822ZM646.078 233.529C645.536 234.954 645.65 235.069 646.638 234.089C647.322 233.41 647.629 232.603 647.321 232.296C647.013 231.988 646.454 232.543 646.078 233.529ZM246.8 237.322C246.808 240.072 247.002 241.078 247.232 239.558C247.461 238.038 247.455 235.788 247.218 234.558C246.981 233.328 246.793 234.572 246.8 237.322ZM320.766 238.322C320.777 240.522 320.982 241.304 321.221 240.06C321.46 238.816 321.451 237.016 321.201 236.06C320.951 235.104 320.755 236.122 320.766 238.322ZM581.725 241.423C581.015 242.192 580.876 242.822 581.416 242.822C582.454 242.822 583.957 240.92 583.364 240.356C583.172 240.173 582.434 240.653 581.725 241.423ZM175.951 245.072L173.014 248.322L176.264 245.385C178.052 243.77 179.514 242.307 179.514 242.135C179.514 241.362 178.689 242.043 175.951 245.072ZM522.078 243.115C522.454 244.101 523.013 244.656 523.321 244.348C523.629 244.041 523.322 243.234 522.638 242.555C521.65 241.575 521.536 241.69 522.078 243.115ZM245.593 244.405C245.641 245.57 245.878 245.807 246.197 245.01C246.486 244.288 246.45 243.425 246.118 243.093C245.786 242.761 245.55 243.351 245.593 244.405ZM401.12 245.67L399.226 248.322L401.564 246.1C402.851 244.878 403.703 243.684 403.458 243.448C403.214 243.211 402.162 244.211 401.12 245.67ZM321.514 244.763C321.514 245.281 321.959 245.979 322.503 246.315C323.069 246.665 323.237 246.264 322.896 245.374C322.231 243.642 321.514 243.325 321.514 244.763ZM244.085 250.393C243.718 251.859 243.61 253.251 243.845 253.487C244.081 253.722 244.575 252.716 244.943 251.251C245.31 249.785 245.418 248.393 245.183 248.157C244.947 247.922 244.453 248.928 244.085 250.393ZM325.514 251.322C326.806 252.697 328.088 253.822 328.363 253.822C328.638 253.822 327.806 252.697 326.514 251.322C325.222 249.947 323.94 248.822 323.665 248.822C323.39 248.822 324.222 249.947 325.514 251.322ZM525.545 252.322C525.545 252.872 525.981 253.997 526.514 254.822C527.047 255.647 527.483 255.872 527.483 255.322C527.483 254.772 527.047 253.647 526.514 252.822C525.981 251.997 525.545 251.772 525.545 252.322ZM66.327 253.505C67.048 253.794 67.911 253.758 68.243 253.426C68.575 253.094 67.985 252.858 66.931 252.901C65.766 252.949 65.529 253.186 66.327 253.505ZM79.801 253.562C82.983 253.761 87.933 253.759 90.801 253.558C93.668 253.357 91.064 253.194 85.014 253.196C78.964 253.198 76.618 253.363 79.801 253.562ZM97.264 253.484C97.952 253.762 99.077 253.762 99.764 253.484C100.452 253.207 99.889 252.98 98.514 252.98C97.139 252.98 96.577 253.207 97.264 253.484ZM103.264 253.528C104.501 253.766 106.527 253.766 107.764 253.528C109.001 253.289 107.989 253.094 105.514 253.094C103.039 253.094 102.027 253.289 103.264 253.528ZM112.764 253.538C114.277 253.767 116.751 253.767 118.264 253.538C119.777 253.309 118.539 253.122 115.514 253.122C112.489 253.122 111.251 253.309 112.764 253.538ZM124.264 253.484C124.952 253.762 126.077 253.762 126.764 253.484C127.452 253.207 126.889 252.98 125.514 252.98C124.139 252.98 123.577 253.207 124.264 253.484ZM133.29 253.555C135.642 253.767 139.242 253.764 141.29 253.549C143.338 253.334 141.414 253.161 137.014 253.165C132.614 253.168 130.938 253.344 133.29 253.555ZM146.327 253.505C147.048 253.794 147.911 253.758 148.243 253.426C148.575 253.094 147.985 252.858 146.931 252.901C145.766 252.949 145.529 253.186 146.327 253.505ZM152.276 253.529C153.52 253.768 155.32 253.759 156.276 253.509C157.232 253.259 156.214 253.063 154.014 253.074C151.814 253.085 151.032 253.29 152.276 253.529ZM331.955 256.267C333.023 257.122 334.335 257.822 334.872 257.822C336.142 257.822 335.575 257.36 332.514 255.902C330.157 254.78 330.125 254.8 331.955 256.267ZM527.545 257.322C527.545 257.872 527.981 258.997 528.514 259.822C529.047 260.647 529.483 260.872 529.483 260.322C529.483 259.772 529.047 258.647 528.514 257.822C527.981 256.997 527.545 256.772 527.545 257.322ZM241.138 259.361C240.173 261.875 240.457 262.524 241.636 260.497C242.22 259.493 242.487 258.461 242.229 258.204C241.972 257.946 241.48 258.467 241.138 259.361ZM260.593 260.405C260.641 261.57 260.878 261.807 261.197 261.01C261.486 260.288 261.45 259.425 261.118 259.093C260.786 258.761 260.55 259.351 260.593 260.405ZM348.242 259.544C350.017 259.765 353.167 259.768 355.242 259.552C357.316 259.335 355.864 259.155 352.014 259.15C348.164 259.146 346.466 259.323 348.242 259.544ZM361.327 259.505C362.048 259.794 362.911 259.758 363.243 259.426C363.575 259.094 362.985 258.858 361.931 258.901C360.766 258.949 360.529 259.186 361.327 259.505ZM636.138 260.361C635.173 262.875 635.457 263.524 636.636 261.497C637.22 260.493 637.487 259.461 637.229 259.204C636.972 258.946 636.48 259.467 636.138 260.361ZM529.6 262.322C529.704 264.216 531.37 267.406 531.428 265.822C531.459 264.997 531.047 263.647 530.514 262.822C529.981 261.997 529.569 261.772 529.6 262.322ZM261.545 264.322C261.545 264.872 261.981 265.997 262.514 266.822C263.047 267.647 263.483 267.872 263.483 267.322C263.483 266.772 263.047 265.647 262.514 264.822C261.981 263.997 261.545 263.772 261.545 264.322ZM237.514 267.822C236.925 268.922 236.669 269.822 236.944 269.822C237.219 269.822 237.925 268.922 238.514 267.822C239.103 266.722 239.359 265.822 239.084 265.822C238.809 265.822 238.103 266.722 237.514 267.822ZM264.078 271.115C264.454 272.101 265.013 272.656 265.321 272.348C265.629 272.041 265.322 271.234 264.638 270.555C263.65 269.575 263.536 269.69 264.078 271.115ZM230.386 278.572C229.143 280.158 229.178 280.193 230.764 278.95C232.43 277.643 232.959 276.822 232.136 276.822C231.929 276.822 231.141 277.61 230.386 278.572ZM535.545 277.322C535.545 277.872 535.981 278.997 536.514 279.822C537.047 280.647 537.483 280.872 537.483 280.322C537.483 279.772 537.047 278.647 536.514 277.822C535.981 276.997 535.545 276.772 535.545 277.322ZM269.492 280.792C270.656 282.425 272.118 284.077 272.742 284.463C273.366 284.849 272.617 283.512 271.077 281.493C267.734 277.111 266.474 276.553 269.492 280.792ZM629.078 279.529C628.536 280.954 628.65 281.069 629.638 280.089C630.322 279.41 630.629 278.603 630.321 278.296C630.013 277.988 629.454 278.543 629.078 279.529ZM224.438 284.572L222.014 287.322L224.764 284.898C227.334 282.632 227.973 281.822 227.188 281.822C227.009 281.822 225.772 283.059 224.438 284.572ZM405.386 286.572C404.143 288.158 404.178 288.193 405.764 286.95C407.43 285.643 407.959 284.822 407.136 284.822C406.929 284.822 406.141 285.61 405.386 286.572ZM219.386 288.572C218.143 290.158 218.178 290.193 219.764 288.95C221.43 287.643 221.959 286.822 221.136 286.822C220.929 286.822 220.141 287.61 219.386 288.572ZM277.514 289.322C278.806 290.697 280.088 291.822 280.363 291.822C280.638 291.822 279.806 290.697 278.514 289.322C277.222 287.947 275.94 286.822 275.665 286.822C275.39 286.822 276.222 287.947 277.514 289.322ZM625.973 287.889C625.61 288.475 625.528 289.17 625.79 289.432C626.052 289.694 626.533 289.214 626.859 288.365C627.535 286.603 626.959 286.293 625.973 287.889ZM399.386 291.572C398.143 293.158 398.178 293.193 399.764 291.95C400.727 291.195 401.514 290.407 401.514 290.2C401.514 289.377 400.693 289.906 399.386 291.572ZM286.514 295.733C287.889 296.857 289.464 297.781 290.014 297.784C291.084 297.792 289.276 296.407 286.014 294.721C284.686 294.035 284.853 294.374 286.514 295.733ZM411.672 296.822C411.672 298.197 411.899 298.76 412.176 298.072C412.454 297.385 412.454 296.26 412.176 295.572C411.899 294.885 411.672 295.447 411.672 296.822ZM389.955 297.377C388.091 298.871 388.103 298.889 390.264 297.842C391.501 297.242 392.514 296.542 392.514 296.287C392.514 295.522 391.995 295.743 389.955 297.377ZM292.247 298.946C292.926 299.63 293.733 299.937 294.04 299.629C294.348 299.321 293.793 298.762 292.807 298.386C291.382 297.844 291.267 297.958 292.247 298.946ZM384.514 299.822C383.689 300.355 383.464 300.791 384.014 300.791C384.564 300.791 385.689 300.355 386.514 299.822C387.339 299.289 387.564 298.853 387.014 298.853C386.464 298.853 385.339 299.289 384.514 299.822ZM0.513977 300.445C0.513977 301.032 1.34 302.259 2.349 303.173C4.033 304.697 11.007 304.812 87.099 304.572L170.014 304.31L86.821 304.066L3.62695 303.822L2.07098 301.599C1.21498 300.377 0.513977 299.857 0.513977 300.445ZM299.514 301.822C300.339 302.355 301.464 302.791 302.014 302.791C302.564 302.791 302.339 302.355 301.514 301.822C300.689 301.289 299.564 300.853 299.014 300.853C298.464 300.853 298.689 301.289 299.514 301.822ZM379.514 301.822C378.689 302.355 378.464 302.791 379.014 302.791C379.564 302.791 380.689 302.355 381.514 301.822C382.339 301.289 382.564 300.853 382.014 300.853C381.464 300.853 380.339 301.289 379.514 301.822ZM414.386 303.072C415.462 304.443 417.087 304.781 421.886 304.633L428.014 304.444L422.049 304.077C418.768 303.875 415.393 303.172 414.549 302.516C413.204 301.47 413.184 301.539 414.386 303.072ZM174.764 303.511C175.726 303.763 177.302 303.763 178.264 303.511C179.226 303.26 178.439 303.054 176.514 303.054C174.589 303.054 173.802 303.26 174.764 303.511ZM430.327 304.505C431.048 304.794 431.911 304.758 432.243 304.426C432.575 304.094 431.985 303.858 430.931 303.901C429.766 303.949 429.529 304.186 430.327 304.505ZM446.298 304.56C449.203 304.763 453.703 304.761 456.298 304.556C458.892 304.35 456.514 304.185 451.014 304.187C445.514 304.19 443.392 304.358 446.298 304.56ZM366.327 305.505C367.048 305.794 367.911 305.758 368.243 305.426C368.575 305.094 367.985 304.858 366.931 304.901C365.766 304.949 365.529 305.186 366.327 305.505ZM554.593 306.405C554.641 307.57 554.878 307.807 555.197 307.01C555.486 306.288 555.45 305.425 555.118 305.093C554.786 304.761 554.55 305.351 554.593 306.405ZM322.778 306.54C324.298 306.769 326.548 306.763 327.778 306.526C329.008 306.289 327.764 306.101 325.014 306.108C322.264 306.116 321.258 306.31 322.778 306.54ZM358.327 306.505C359.048 306.794 359.911 306.758 360.243 306.426C360.575 306.094 359.985 305.858 358.931 305.901C357.766 305.949 357.529 306.186 358.327 306.505ZM342.264 307.484C342.952 307.762 344.077 307.762 344.764 307.484C345.452 307.207 344.889 306.98 343.514 306.98C342.139 306.98 341.577 307.207 342.264 307.484ZM616.593 313.405C616.641 314.57 616.878 314.807 617.197 314.01C617.486 313.288 617.45 312.425 617.118 312.093C616.786 311.761 616.55 312.351 616.593 313.405ZM552.078 314.529C551.536 315.954 551.65 316.069 552.638 315.089C553.322 314.41 553.629 313.603 553.321 313.296C553.013 312.988 552.454 313.543 552.078 314.529ZM614.138 319.361C613.173 321.875 613.457 322.524 614.636 320.497C615.22 319.493 615.487 318.461 615.229 318.204C614.972 317.946 614.48 318.467 614.138 319.361ZM546.951 322.072L544.014 325.322L547.264 322.385C550.293 319.647 550.974 318.822 550.201 318.822C550.029 318.822 548.566 320.284 546.951 322.072ZM612.078 325.529C611.536 326.954 611.65 327.069 612.638 326.089C613.322 325.41 613.629 324.603 613.321 324.296C613.013 323.988 612.454 324.543 612.078 325.529ZM540.955 326.377C539.091 327.871 539.103 327.889 541.264 326.842C542.501 326.242 543.514 325.542 543.514 325.287C543.514 324.522 542.995 324.743 540.955 326.377ZM610.138 330.361C609.173 332.875 609.457 333.524 610.636 331.497C611.22 330.493 611.487 329.461 611.229 329.204C610.972 328.946 610.48 329.467 610.138 330.361ZM528.327 330.505C529.048 330.794 529.911 330.758 530.243 330.426C530.575 330.094 529.985 329.858 528.931 329.901C527.766 329.949 527.529 330.186 528.327 330.505ZM519.264 331.528C520.501 331.766 522.527 331.766 523.764 331.528C525.001 331.289 523.989 331.094 521.514 331.094C519.039 331.094 518.027 331.289 519.264 331.528ZM4.07196 332.729C3.76296 333.227 4.412 333.4 5.513 333.112C7.848 332.501 8.143 331.822 6.073 331.822C5.28 331.822 4.37996 332.23 4.07196 332.729ZM22.824 332.57C30.419 332.74 42.569 332.74 49.824 332.569C57.078 332.398 50.864 332.259 36.014 332.26C21.164 332.26 15.228 332.4 22.824 332.57ZM119.327 332.505C120.048 332.794 120.911 332.758 121.243 332.426C121.575 332.094 120.985 331.858 119.931 331.901C118.766 331.949 118.529 332.186 119.327 332.505ZM136.825 332.57C144.971 332.738 158.021 332.738 165.825 332.569C173.629 332.401 166.964 332.263 151.014 332.263C135.064 332.264 128.679 332.402 136.825 332.57ZM181.327 332.505C182.048 332.794 182.911 332.758 183.243 332.426C183.575 332.094 182.985 331.858 181.931 331.901C180.766 331.949 180.529 332.186 181.327 332.505ZM190.264 332.554C192.601 332.765 196.427 332.765 198.764 332.554C201.101 332.344 199.189 332.171 194.514 332.171C189.839 332.171 187.927 332.344 190.264 332.554ZM205.264 332.528C206.501 332.766 208.527 332.766 209.764 332.528C211.001 332.289 209.989 332.094 207.514 332.094C205.039 332.094 204.027 332.289 205.264 332.528ZM221.264 332.545C223.052 332.767 225.976 332.767 227.764 332.545C229.552 332.324 228.089 332.142 224.514 332.142C220.939 332.142 219.476 332.324 221.264 332.545ZM232.327 332.505C233.048 332.794 233.911 332.758 234.243 332.426C234.575 332.094 233.985 331.858 232.931 331.901C231.766 331.949 231.529 332.186 232.327 332.505ZM308.264 332.571C321.602 332.729 343.426 332.729 356.764 332.571C370.102 332.414 359.189 332.285 332.514 332.285C305.839 332.285 294.927 332.414 308.264 332.571ZM396.794 332.558C399.423 332.765 403.473 332.762 405.794 332.553C408.115 332.343 405.964 332.174 401.014 332.177C396.064 332.18 394.165 332.352 396.794 332.558ZM440.826 332.57C449.523 332.737 463.473 332.737 471.826 332.57C480.18 332.403 473.064 332.266 456.014 332.267C438.964 332.267 432.13 332.404 440.826 332.57ZM490.264 332.545C492.051 332.767 494.977 332.767 496.764 332.545C498.551 332.324 497.089 332.142 493.514 332.142C489.939 332.142 488.477 332.324 490.264 332.545ZM604.658 343.572C603.567 346.122 603.592 346.181 604.998 344.381C605.832 343.313 606.514 342.076 606.514 341.631C606.514 340.111 605.836 340.821 604.658 343.572ZM586.386 366.572C585.143 368.158 585.178 368.193 586.764 366.95C587.727 366.195 588.514 365.407 588.514 365.2C588.514 364.377 587.693 364.906 586.386 366.572ZM569.514 375.822C568.689 376.355 568.464 376.791 569.014 376.791C569.564 376.791 570.689 376.355 571.514 375.822C572.339 375.289 572.564 374.853 572.014 374.853C571.464 374.853 570.339 375.289 569.514 375.822ZM563.014 377.822C561.695 378.389 561.525 378.7 562.514 378.736C563.339 378.767 564.689 378.355 565.514 377.822C567.342 376.641 565.763 376.641 563.014 377.822ZM555.327 380.505C556.048 380.794 556.911 380.758 557.243 380.426C557.575 380.094 556.985 379.858 555.931 379.901C554.766 379.949 554.529 380.186 555.327 380.505ZM547.764 381.511C548.727 381.763 550.301 381.763 551.264 381.511C552.227 381.26 551.439 381.054 549.514 381.054C547.589 381.054 546.801 381.26 547.764 381.511ZM539.276 382.529C540.52 382.768 542.32 382.759 543.276 382.509C544.232 382.259 543.214 382.063 541.014 382.074C538.814 382.085 538.032 382.29 539.276 382.529ZM136.845 383.572C209.351 383.714 327.701 383.714 399.845 383.572C471.988 383.43 412.664 383.315 268.014 383.315C123.364 383.315 64.338 383.43 136.845 383.572Z" fill="url(#paint1_linear_8_84)"/>
<defs>
<linearGradient id="paint0_linear_8_84" x1="-0.486025" y1="24.8215" x2="692.014" y2="383.822" gradientUnits="userSpaceOnUse">
<stop stop-color="#4F6D7A"/>
<stop offset="0.526752" stop-color="#4E6873"/>
<stop offset="1" stop-color="#3D4143"/>
</linearGradient>
<linearGradient id="paint1_linear_8_84" x1="713.514" y1="383.822" x2="1414.01" y2="-0.178495" gradientUnits="userSpaceOnUse">
<stop stop-color="#432512"/>
<stop offset="0.485577" stop-color="#784728"/>
<stop offset="1" stop-color="#E59C6F"/>
</linearGradient>
</defs>
</svg>
