<svg width="2444" height="384" viewBox="0 0 2444 384" fill="none" xmlns="http://www.w3.org/2000/svg">
<g clip-path="url(#clip0_8_95)">
<g clip-path="url(#clip1_8_95)">
<path fill-rule="evenodd" clip-rule="evenodd" d="M2486.59 1.40454C2486.64 2.56954 2486.88 2.80652 2487.2 2.00952C2487.49 1.28752 2487.45 0.424531 2487.12 0.0925307C2486.79 -0.239469 2486.55 0.350542 2486.59 1.40454ZM2486.59 18.4045C2486.64 19.5695 2486.88 19.8065 2487.2 19.0095C2487.49 18.2875 2487.45 17.4245 2487.12 17.0925C2486.79 16.7605 2486.55 17.3505 2486.59 18.4045ZM1161.92 24.0735L1159.51 25.9666V162.46C1159.51 254.636 1159.85 299.582 1160.55 300.888C1161.56 302.777 1163.59 302.822 1248.49 302.822H1335.4L1336.96 300.599C1338.25 298.747 1338.51 294.608 1338.51 275.722C1338.51 255.887 1338.31 252.896 1336.86 251.697C1335.52 250.582 1324.87 250.27 1279.64 250.016C1249.07 249.845 1223.83 249.469 1223.54 249.181C1223.25 248.892 1222.89 198.543 1222.74 137.295L1222.47 25.9335L1219.99 23.9815C1217.66 22.1525 1215.84 22.0345 1190.92 22.1055C1166.41 22.1755 1164.14 22.3295 1161.92 24.0735ZM455.473 27.3646L453.014 29.9825V165.298C453.014 297.969 453.052 300.654 454.96 302.763L456.907 304.914L543.46 304.57C639.165 304.189 638.723 304.216 655.983 297.599C679.621 288.536 693.046 272.36 699.13 245.612C701.364 235.792 700.532 209.477 697.682 199.787C692.274 181.399 680.92 167.151 665.647 159.586L659.279 156.432L663.147 153.426C674.091 144.919 681.494 133.249 685.101 118.822C687.868 107.751 687.635 86.3005 684.624 74.9355C679.044 53.8755 668.034 41.0595 648.311 32.6675C644.521 31.0545 637.953 28.7636 633.717 27.5756C626.152 25.4556 624.506 25.4105 541.973 25.0815L457.933 24.7476L455.473 27.3646ZM2486.59 55.4045C2486.64 56.5695 2486.88 56.8065 2487.2 56.0095C2487.49 55.2875 2487.45 54.4245 2487.12 54.0925C2486.79 53.7605 2486.55 54.3505 2486.59 55.4045ZM607.637 78.6436C612.374 80.2146 619.812 86.8216 621.975 91.3806C622.918 93.3676 624.108 97.9496 624.62 101.563C626.925 117.841 617.561 131.528 601.981 134.657C598.154 135.426 582.796 135.822 556.847 135.822H517.514V106.989C517.514 91.1295 517.84 77.8285 518.238 77.4305C519.51 76.1585 603.583 77.2996 607.637 78.6436ZM793.514 92.8975C759.131 96.6905 734.859 100.711 730.978 103.254L728.209 105.068L728.899 126.695C729.439 143.615 729.906 148.64 731.047 149.782C732.326 151.062 736.482 150.722 764.76 147.022C802.066 142.14 818.118 141.106 831.337 142.733C842.234 144.074 848.425 146.677 852.512 151.635C855.65 155.443 857.867 163.455 857.329 169.045L857.014 172.322L817.014 172.945C763.152 173.785 750.99 175.762 735.195 186.246C720.214 196.189 713.006 210.893 711.854 233.854C710.113 268.585 722.465 289.945 750.83 301.254C759.491 304.707 775.54 306.911 792.514 306.98C810.109 307.052 814.953 306.638 826.014 304.12C837.422 301.524 848.83 295.688 857.511 288.009C859.434 286.308 861.285 285.232 861.624 285.619C862.744 286.896 864.514 293.075 864.518 295.721C864.52 297.152 865.365 299.705 866.395 301.394L868.268 304.467L891.641 304.571C911.647 304.66 915.266 304.447 916.764 303.094C918.4 301.615 918.514 296.825 918.514 229.739C918.514 185.383 918.114 154.979 917.467 150.144C913.42 119.911 895.806 101.902 863.25 94.7125C855.595 93.0225 849.565 92.6115 828.014 92.3165C813.714 92.1205 798.189 92.3815 793.514 92.8975ZM1432.51 92.8475C1409.86 95.0995 1389.86 104.041 1376.29 117.981C1366.38 128.157 1357.59 142.906 1353.46 156.262C1349.12 170.304 1348.12 178.521 1348.09 200.322C1348.06 218.436 1348.36 222.696 1350.28 231.322C1355.16 253.281 1361.68 265.956 1375.01 279.399C1382.32 286.762 1385.71 289.34 1393.01 293.059C1409.85 301.637 1426.08 305.491 1449.51 306.477C1476.06 307.595 1496.69 303.808 1516.43 294.192C1526.75 289.166 1528.78 287.697 1537.54 278.976C1545.92 270.625 1547.85 268.04 1551.83 259.822C1557.75 247.599 1560.07 240.122 1562.52 225.322C1565.95 204.639 1564.7 179.631 1559.12 157.654C1550.11 122.11 1522.21 97.9935 1484.19 92.8745C1475.51 91.7055 1444.16 91.6885 1432.51 92.8475ZM1645.01 93.7045C1625.06 98.2705 1612.1 106.322 1600.55 121.322C1588.91 136.439 1583.09 158.079 1581.9 190.68C1580.97 216.058 1583.37 236.134 1589.05 250.309C1599.69 276.909 1616.51 290.423 1647.01 296.877C1656.68 298.921 1686.35 298.675 1696.01 296.469C1704.24 294.591 1725.79 284.311 1728.25 281.09C1730.47 278.19 1731.02 280.779 1730.9 293.658C1730.81 304.093 1730.43 307.137 1728.74 310.951C1726.15 316.79 1720.53 322.459 1714.6 325.199L1710.01 327.322L1436.3 327.822C1194.77 328.263 1162.41 328.498 1161.09 329.822C1159.93 330.998 1159.58 334.349 1159.51 345.322C1159.31 375.342 1159.33 375.633 1161.63 377.937L1163.74 380.052L1498.38 379.644C1777.71 379.304 1833.43 379.012 1835.51 377.879C1838.12 376.465 1859.34 359.655 1863.26 355.899C1866.31 352.977 1866.1 351.355 1862.26 348.415C1860.48 347.044 1856.09 343.68 1852.51 340.94C1848.94 338.199 1843.31 334.239 1840.01 332.139L1834.01 328.322L1813.01 327.822L1792.01 327.322L1792.17 323.822C1792.25 321.897 1792.8 315.597 1793.38 309.822C1794.04 303.231 1794.44 261.84 1794.45 198.65C1794.46 103.211 1794.37 97.8625 1792.66 95.7565C1790.89 93.5665 1790.52 93.5365 1766.53 93.6235C1747.14 93.6945 1741.91 93.9965 1740.8 95.1075C1740.03 95.8745 1738.76 99.5825 1737.97 103.349C1737.18 107.115 1736.18 110.558 1735.73 111.001C1735.29 111.444 1731.8 109.777 1727.97 107.297C1718.51 101.168 1709.69 97.0826 1700.62 94.6306C1689.48 91.6206 1656.52 91.0715 1645.01 93.7045ZM923.737 95.3785C920.745 97.4735 920.92 99.6535 924.938 110.272C926.821 115.25 929.776 123.372 931.505 128.322C933.234 133.272 935.048 138.222 935.537 139.322C936.027 140.422 940.072 150.997 944.526 162.822C948.981 174.647 953.017 185.222 953.494 186.322C954.341 188.271 963.526 212.312 968.014 224.322C979.992 256.382 993.352 289.795 996.046 294.432C997.822 297.488 999.719 299.094 1003.45 300.697C1008.26 302.768 1008.43 302.982 1007.85 306.088C1005.52 318.613 997.4 326.749 983.976 330.007C980.19 330.926 917.252 331.288 718.433 331.535C458.572 331.858 457.846 331.864 455.683 333.879C453.585 335.833 453.514 336.62 453.514 357.79C453.514 381.289 453.68 382.087 458.834 383.355C460.033 383.651 581.389 383.724 728.514 383.519C927.821 383.241 997.671 382.845 1002.51 381.969C1021.14 378.598 1033.92 372.526 1044.61 361.972C1053.08 353.599 1056.82 347.904 1061.56 336.089C1063.28 331.817 1065.05 327.422 1065.5 326.322C1065.95 325.222 1067.3 321.622 1068.51 318.322C1069.71 315.022 1071.31 310.747 1072.07 308.822C1072.82 306.897 1075.3 300.147 1077.57 293.822C1079.84 287.497 1082.07 281.422 1082.54 280.322C1083.82 277.281 1093.03 252.304 1096 243.822C1097.45 239.697 1099.01 235.422 1099.47 234.322C1099.94 233.222 1101.31 229.622 1102.51 226.322C1103.72 223.022 1105.11 219.422 1105.59 218.322C1106.49 216.3 1112.91 199.038 1125.68 164.322C1129.53 153.872 1135.08 139.022 1138.01 131.322C1149.17 102.082 1149.69 100.424 1148.65 97.6725C1147.77 95.3555 1147.01 95.0535 1140.84 94.5385C1137.09 94.2255 1124 94.0585 1111.77 94.1665C1091.07 94.3495 1089.39 94.4995 1087.59 96.3425C1086.52 97.4305 1082.21 107.997 1078.01 119.822C1073.81 131.647 1069.09 144.922 1067.51 149.322C1063.58 160.296 1050.69 197.431 1043.03 219.822C1035.55 241.717 1035.51 241.822 1034.57 241.822C1034.16 241.822 1032.9 238.559 1031.75 234.572C1030.61 230.585 1025.77 216.072 1021 202.322C1010.3 171.438 1003.32 151.004 994.959 126.1C985.985 99.3645 984.627 95.9525 982.506 94.8175C981.401 94.2255 969.544 93.8215 953.302 93.8215C930.173 93.8215 925.616 94.0615 923.737 95.3785ZM1473.51 145.46C1488.63 149.635 1496.04 159.107 1500.02 179.322C1501.46 186.655 1501.67 191.192 1501.17 203.822C1500.48 221.256 1499.09 228.413 1495.04 235.469C1487.88 247.945 1478.35 253.292 1461.36 254.371C1444.29 255.455 1427.71 250.866 1422.38 243.581C1412.78 230.459 1409.04 210.72 1411.41 185.731C1413.56 163.157 1419.99 152.652 1435.51 146.357C1443.8 142.999 1462.96 142.546 1473.51 145.46ZM1698.63 146.257C1715.12 147.104 1722.03 151.014 1728.06 162.916C1731.58 169.86 1732.44 178.023 1732.15 201.822C1731.92 220.827 1731.73 222.708 1729.57 227.616C1726.73 234.042 1721.15 239.047 1713.59 241.946C1709.05 243.69 1705.13 244.178 1692.41 244.582C1669.79 245.3 1661.15 243.49 1653.68 236.46C1649.4 232.443 1647.16 228.034 1645 219.404C1643.54 213.576 1643.35 209.481 1643.82 193.404C1644.12 182.909 1644.86 172.297 1645.46 169.822C1647.8 160.193 1653.36 152.473 1660.62 148.768C1664.63 146.724 1677.25 144.977 1684.51 145.463C1686.99 145.628 1693.34 145.985 1698.63 146.257ZM618.848 188.846C626.194 191.594 632.682 197.489 635.563 204.034C637.498 208.428 637.902 211.097 637.953 219.822C638.008 229.371 637.76 230.84 635.208 236.036C633.642 239.224 630.412 243.502 627.902 245.711C619.788 252.854 620.067 252.822 565.836 252.822H517.514V219.989C517.514 201.93 517.701 186.968 517.93 186.739C518.159 186.51 539.731 186.43 565.867 186.562C610.946 186.79 613.668 186.908 618.848 188.846ZM857.35 230.15C857.052 240.19 856.738 241.879 854.588 245.013C851.603 249.364 845.548 253.113 836.723 256.072C830.656 258.107 828.1 258.322 810.014 258.322C792.418 258.322 789.593 258.098 786.514 256.458C778.148 252.002 774.514 246.155 774.514 237.15C774.514 231.22 775.982 227.575 779.812 223.998C784.721 219.414 788.67 218.96 824.35 218.889L857.686 218.822L857.35 230.15Z" fill="url(#paint0_linear_8_95)"/>
<path fill-rule="evenodd" clip-rule="evenodd" d="M2486.59 1.40454C2486.64 2.56954 2486.88 2.80652 2487.2 2.00952C2487.49 1.28752 2487.45 0.424531 2487.12 0.0925307C2486.79 -0.239469 2486.55 0.350542 2486.59 1.40454ZM2486.59 18.4045C2486.64 19.5695 2486.88 19.8065 2487.2 19.0095C2487.49 18.2875 2487.45 17.4245 2487.12 17.0925C2486.79 16.7605 2486.55 17.3505 2486.59 18.4045ZM1161.92 24.0735L1159.51 25.9666V162.46C1159.51 254.636 1159.85 299.582 1160.55 300.888C1161.56 302.777 1163.59 302.822 1248.49 302.822H1335.4L1336.96 300.599C1338.25 298.747 1338.51 294.608 1338.51 275.722C1338.51 255.887 1338.31 252.896 1336.86 251.697C1335.52 250.582 1324.87 250.27 1279.64 250.016C1249.07 249.845 1223.83 249.469 1223.54 249.181C1223.25 248.892 1222.89 198.543 1222.74 137.295L1222.47 25.9335L1219.99 23.9815C1217.66 22.1525 1215.84 22.0345 1190.92 22.1055C1166.41 22.1755 1164.14 22.3295 1161.92 24.0735ZM456.386 26.5715C455.117 28.1905 455.164 28.2116 457.014 26.8546C458.114 26.0476 459.202 25.2606 459.431 25.1046C459.66 24.9486 459.377 24.8215 458.803 24.8215C458.229 24.8215 457.141 25.6095 456.386 26.5715ZM612.282 25.5465C614.079 25.7685 616.779 25.7646 618.282 25.5366C619.785 25.3076 618.314 25.1255 615.014 25.1315C611.714 25.1365 610.485 25.3235 612.282 25.5465ZM625.327 26.5045C626.048 26.7935 626.911 26.7575 627.243 26.4255C627.575 26.0935 626.985 25.8575 625.931 25.9005C624.766 25.9485 624.529 26.1855 625.327 26.5045ZM453 165.322C453 239.022 453.119 269.024 453.264 231.994C453.409 194.964 453.409 134.664 453.264 97.9935C453.119 61.3235 453 91.6215 453 165.322ZM660.514 39.1995C660.514 39.4065 661.302 40.1945 662.264 40.9495C663.85 42.1925 663.885 42.1575 662.642 40.5715C661.335 38.9055 660.514 38.3765 660.514 39.1995ZM669.014 46.8215C671.162 49.0215 673.145 50.8215 673.42 50.8215C673.695 50.8215 672.162 49.0215 670.014 46.8215C667.866 44.6215 665.883 42.8215 665.608 42.8215C665.333 42.8215 666.866 44.6215 669.014 46.8215ZM673.514 52.1995C673.514 52.4065 674.302 53.1945 675.264 53.9495C676.85 55.1925 676.885 55.1575 675.642 53.5715C674.335 51.9055 673.514 51.3765 673.514 52.1995ZM2486.59 55.4045C2486.64 56.5695 2486.88 56.8065 2487.2 56.0095C2487.49 55.2875 2487.45 54.4245 2487.12 54.0925C2486.79 53.7605 2486.55 54.3505 2486.59 55.4045ZM676.514 56.7625C676.514 57.2805 676.959 57.9785 677.503 58.3145C678.069 58.6645 678.237 58.2635 677.896 57.3735C677.231 55.6415 676.514 55.3245 676.514 56.7625ZM680.545 64.3215C680.545 64.8715 680.981 65.9965 681.514 66.8215C682.047 67.6465 682.483 67.8715 682.483 67.3215C682.483 66.7715 682.047 65.6465 681.514 64.8215C680.981 63.9965 680.545 63.7715 680.545 64.3215ZM518.021 76.8105C517.671 77.3765 518.072 77.5446 518.962 77.2036C520.694 76.5386 521.011 75.8215 519.573 75.8215C519.055 75.8215 518.357 76.2665 518.021 76.8105ZM525.264 76.4835C525.952 76.7615 527.077 76.7615 527.764 76.4835C528.452 76.2065 527.889 75.9796 526.514 75.9796C525.139 75.9796 524.577 76.2065 525.264 76.4835ZM531.264 76.4835C531.952 76.7615 533.077 76.7615 533.764 76.4835C534.452 76.2065 533.889 75.9796 532.514 75.9796C531.139 75.9796 530.577 76.2065 531.264 76.4835ZM559.264 76.5685C565.452 76.7435 575.577 76.7435 581.764 76.5685C587.952 76.3925 582.889 76.2495 570.514 76.2495C558.139 76.2495 553.077 76.3925 559.264 76.5685ZM600.264 77.4835C600.952 77.7615 602.077 77.7615 602.764 77.4835C603.452 77.2065 602.889 76.9796 601.514 76.9796C600.139 76.9796 599.577 77.2065 600.264 77.4835ZM685.709 83.3215C685.729 84.9715 685.953 85.5256 686.207 84.5526C686.461 83.5796 686.444 82.2296 686.17 81.5526C685.896 80.8756 685.689 81.6715 685.709 83.3215ZM617.514 85.3215C618.806 86.6965 620.088 87.8215 620.363 87.8215C620.638 87.8215 619.806 86.6965 618.514 85.3215C617.222 83.9465 615.94 82.8215 615.665 82.8215C615.39 82.8215 616.222 83.9465 617.514 85.3215ZM686.863 97.8215C686.863 102.497 687.036 104.409 687.246 102.072C687.457 99.7345 687.457 95.9085 687.246 93.5715C687.036 91.2345 686.863 93.1465 686.863 97.8215ZM804.282 92.5465C806.079 92.7685 808.779 92.7646 810.282 92.5366C811.785 92.3076 810.314 92.1255 807.014 92.1315C803.714 92.1365 802.485 92.3235 804.282 92.5465ZM840.783 92.5145C841.756 92.7685 843.106 92.7515 843.783 92.4775C844.46 92.2035 843.664 91.9965 842.014 92.0165C840.364 92.0365 839.81 92.2605 840.783 92.5145ZM1432.51 92.8475C1409.86 95.0995 1389.86 104.041 1376.29 117.981C1366.38 128.157 1357.59 142.906 1353.46 156.262C1349.12 170.304 1348.12 178.521 1348.09 200.322C1348.06 218.436 1348.36 222.696 1350.28 231.322C1355.16 253.281 1361.68 265.956 1375.01 279.399C1382.32 286.762 1385.71 289.34 1393.01 293.059C1409.85 301.637 1426.08 305.491 1449.51 306.477C1476.06 307.595 1496.69 303.808 1516.43 294.192C1526.75 289.166 1528.78 287.697 1537.54 278.976C1545.92 270.625 1547.85 268.04 1551.83 259.822C1557.75 247.599 1560.07 240.122 1562.52 225.322C1565.95 204.639 1564.7 179.631 1559.12 157.654C1550.11 122.11 1522.21 97.9935 1484.19 92.8745C1475.51 91.7055 1444.16 91.6885 1432.51 92.8475ZM1645.01 93.7045C1625.06 98.2705 1612.1 106.322 1600.55 121.322C1588.91 136.439 1583.09 158.079 1581.9 190.68C1580.97 216.058 1583.37 236.134 1589.05 250.309C1599.69 276.909 1616.51 290.423 1647.01 296.877C1656.68 298.921 1686.35 298.675 1696.01 296.469C1704.24 294.591 1725.79 284.311 1728.25 281.09C1730.47 278.19 1731.02 280.779 1730.9 293.658C1730.81 304.093 1730.43 307.137 1728.74 310.951C1726.15 316.79 1720.53 322.459 1714.6 325.199L1710.01 327.322L1436.3 327.822C1194.77 328.263 1162.41 328.498 1161.09 329.822C1159.93 330.998 1159.58 334.349 1159.51 345.322C1159.31 375.342 1159.33 375.633 1161.63 377.937L1163.74 380.052L1498.38 379.644C1777.71 379.304 1833.43 379.012 1835.51 377.879C1838.12 376.465 1859.34 359.655 1863.26 355.899C1866.31 352.977 1866.1 351.355 1862.26 348.415C1860.48 347.044 1856.09 343.68 1852.51 340.94C1848.94 338.199 1843.31 334.239 1840.01 332.139L1834.01 328.322L1813.01 327.822L1792.01 327.322L1792.17 323.822C1792.25 321.897 1792.8 315.597 1793.38 309.822C1794.04 303.231 1794.44 261.84 1794.45 198.65C1794.46 103.211 1794.37 97.8625 1792.66 95.7565C1790.89 93.5665 1790.52 93.5365 1766.53 93.6235C1747.14 93.6945 1741.91 93.9965 1740.8 95.1075C1740.03 95.8745 1738.76 99.5825 1737.97 103.349C1737.18 107.115 1736.18 110.558 1735.73 111.001C1735.29 111.444 1731.8 109.777 1727.97 107.297C1718.51 101.168 1709.69 97.0826 1700.62 94.6306C1689.47 91.6206 1656.52 91.0715 1645.01 93.7045ZM793.276 93.5285C794.52 93.7675 796.32 93.7585 797.276 93.5085C798.232 93.2585 797.214 93.0625 795.014 93.0735C792.814 93.0845 792.032 93.2895 793.276 93.5285ZM850.764 93.5106C851.727 93.7626 853.301 93.7626 854.264 93.5106C855.227 93.2596 854.439 93.0535 852.514 93.0535C850.589 93.0535 849.801 93.2596 850.764 93.5106ZM782.264 94.5275C783.501 94.7655 785.527 94.7655 786.764 94.5275C788.001 94.2885 786.989 94.0935 784.514 94.0935C782.039 94.0935 781.027 94.2885 782.264 94.5275ZM858.264 94.4835C858.952 94.7615 860.077 94.7615 860.764 94.4835C861.452 94.2065 860.889 93.9796 859.514 93.9796C858.139 93.9796 857.577 94.2065 858.264 94.4835ZM939.264 94.5695C947.102 94.7385 959.926 94.7385 967.764 94.5695C975.602 94.4005 969.189 94.2625 953.514 94.2625C937.839 94.2625 931.426 94.4005 939.264 94.5695ZM1104.26 94.5585C1107.15 94.7605 1111.88 94.7605 1114.76 94.5585C1117.65 94.3565 1115.29 94.1915 1109.51 94.1915C1103.74 94.1915 1101.38 94.3565 1104.26 94.5585ZM1122.76 94.5375C1124.28 94.7665 1126.75 94.7665 1128.26 94.5375C1129.78 94.3085 1128.54 94.1215 1125.51 94.1215C1122.49 94.1215 1121.25 94.3085 1122.76 94.5375ZM1134.26 94.4835C1134.95 94.7615 1136.08 94.7615 1136.76 94.4835C1137.45 94.2065 1136.89 93.9796 1135.51 93.9796C1134.14 93.9796 1133.58 94.2065 1134.26 94.4835ZM773.264 95.4835C773.952 95.7615 775.077 95.7615 775.764 95.4835C776.452 95.2065 775.889 94.9796 774.514 94.9796C773.139 94.9796 772.577 95.2065 773.264 95.4835ZM922.386 96.5715C921.143 98.1575 921.178 98.1925 922.764 96.9495C923.727 96.1945 924.514 95.4065 924.514 95.1995C924.514 94.3765 923.693 94.9055 922.386 96.5715ZM1146.72 96.2205C1147.43 96.9905 1148.17 97.4705 1148.36 97.2875C1148.96 96.7235 1147.45 94.8215 1146.42 94.8215C1145.88 94.8215 1146.01 95.4515 1146.72 96.2205ZM766.327 96.5045C767.048 96.7935 767.911 96.7575 768.243 96.4255C768.575 96.0935 767.985 95.8575 766.931 95.9005C765.766 95.9485 765.529 96.1855 766.327 96.5045ZM868.327 96.5045C869.048 96.7935 869.911 96.7575 870.243 96.4255C870.575 96.0935 869.985 95.8575 868.931 95.9005C867.766 95.9485 867.529 96.1855 868.327 96.5045ZM758.783 97.5145C759.756 97.7685 761.106 97.7515 761.783 97.4775C762.46 97.2035 761.664 96.9965 760.014 97.0165C758.364 97.0365 757.81 97.2605 758.783 97.5145ZM752.264 98.4835C752.952 98.7615 754.077 98.7615 754.764 98.4835C755.452 98.2065 754.889 97.9796 753.514 97.9796C752.139 97.9796 751.577 98.2065 752.264 98.4835ZM984.514 98.7625C984.514 99.2805 984.959 99.9785 985.503 100.315C986.069 100.665 986.237 100.264 985.896 99.3735C985.231 97.6415 984.514 97.3245 984.514 98.7625ZM747.264 99.4835C747.952 99.7615 749.077 99.7615 749.764 99.4835C750.452 99.2065 749.889 98.9796 748.514 98.9796C747.139 98.9796 746.577 99.2065 747.264 99.4835ZM1148.59 100.405C1148.64 101.57 1148.88 101.807 1149.2 101.01C1149.49 100.288 1149.45 99.4245 1149.12 99.0925C1148.79 98.7605 1148.55 99.3505 1148.59 100.405ZM624.709 102.322C624.729 103.972 624.953 104.526 625.207 103.553C625.461 102.58 625.444 101.23 625.17 100.553C624.896 99.8756 624.689 100.672 624.709 102.322ZM740.264 100.484C740.952 100.762 742.077 100.762 742.764 100.484C743.452 100.207 742.889 99.9796 741.514 99.9796C740.139 99.9796 739.577 100.207 740.264 100.484ZM880.514 100.822C881.339 101.355 882.464 101.791 883.014 101.791C883.564 101.791 883.339 101.355 882.514 100.822C881.689 100.289 880.564 99.8525 880.014 99.8525C879.464 99.8525 879.689 100.289 880.514 100.822ZM735.264 101.484C735.952 101.762 737.077 101.762 737.764 101.484C738.452 101.207 737.889 100.98 736.514 100.98C735.139 100.98 734.577 101.207 735.264 101.484ZM884.514 102.271C884.514 102.546 885.864 103.469 887.514 104.322C889.164 105.175 890.514 105.648 890.514 105.373C890.514 105.098 889.164 104.175 887.514 103.322C885.864 102.469 884.514 101.996 884.514 102.271ZM729.714 104.022C728.876 104.86 728.58 109.307 728.732 118.772L728.951 132.322L729.263 118.888C729.443 111.121 730.035 104.899 730.667 104.138C732.033 102.492 731.33 102.406 729.714 104.022ZM1146.97 104.889C1146.61 105.475 1146.53 106.17 1146.79 106.432C1147.05 106.694 1147.53 106.214 1147.86 105.365C1148.54 103.603 1147.96 103.293 1146.97 104.889ZM988.545 109.322C988.545 109.872 988.981 110.997 989.514 111.822C990.047 112.647 990.483 112.872 990.483 112.322C990.483 111.772 990.047 110.647 989.514 109.822C988.981 108.997 988.545 108.772 988.545 109.322ZM685.672 112.822C685.672 114.197 685.899 114.76 686.176 114.072C686.454 113.385 686.454 112.26 686.176 111.572C685.899 110.885 685.672 111.447 685.672 112.822ZM926.545 114.322C926.545 114.872 926.981 115.997 927.514 116.822C928.047 117.647 928.483 117.872 928.483 117.322C928.483 116.772 928.047 115.647 927.514 114.822C926.981 113.997 926.545 113.772 926.545 114.322ZM990.6 115.322C990.704 117.216 992.37 120.406 992.428 118.822C992.459 117.997 992.047 116.647 991.514 115.822C990.981 114.997 990.569 114.772 990.6 115.322ZM904.014 117.822C905.009 118.922 906.049 119.822 906.324 119.822C906.599 119.822 906.009 118.922 905.014 117.822C904.019 116.722 902.979 115.822 902.704 115.822C902.429 115.822 903.019 116.722 904.014 117.822ZM1142.14 118.361C1141.17 120.875 1141.46 121.524 1142.64 119.497C1143.22 118.493 1143.49 117.461 1143.23 117.204C1142.97 116.946 1142.48 117.467 1142.14 118.361ZM928.593 120.405C928.641 121.57 928.878 121.807 929.197 121.01C929.486 120.288 929.45 119.425 929.118 119.093C928.786 118.761 928.55 119.351 928.593 120.405ZM992.6 121.322C992.704 123.216 994.37 126.406 994.428 124.822C994.459 123.997 994.047 122.647 993.514 121.822C992.981 120.997 992.569 120.772 992.6 121.322ZM617.438 126.572L615.014 129.322L617.764 126.898C620.334 124.632 620.973 123.822 620.188 123.822C620.009 123.822 618.772 125.059 617.438 126.572ZM1075.14 127.361C1074.17 129.875 1074.46 130.524 1075.64 128.497C1076.22 127.493 1076.49 126.461 1076.23 126.204C1075.97 125.946 1075.48 126.467 1075.14 127.361ZM910.514 128.763C910.514 129.281 910.959 129.979 911.503 130.315C912.069 130.665 912.237 130.264 911.896 129.374C911.231 127.642 910.514 127.325 910.514 128.763ZM599.327 135.505C600.048 135.794 600.911 135.758 601.243 135.426C601.575 135.094 600.985 134.858 599.931 134.901C598.766 134.949 598.529 135.186 599.327 135.505ZM518.264 136.484C518.952 136.762 520.077 136.762 520.764 136.484C521.452 136.207 520.889 135.98 519.514 135.98C518.139 135.98 517.577 136.207 518.264 136.484ZM540.828 136.571C550.075 136.736 564.925 136.735 573.828 136.57C582.73 136.404 575.164 136.269 557.014 136.27C538.864 136.27 531.58 136.405 540.828 136.571ZM593.264 136.484C593.952 136.762 595.077 136.762 595.764 136.484C596.452 136.207 595.889 135.98 594.514 135.98C593.139 135.98 592.577 136.207 593.264 136.484ZM934.514 137.763C934.514 138.281 934.959 138.979 935.503 139.315C936.069 139.665 936.237 139.264 935.896 138.374C935.231 136.642 934.514 136.325 934.514 137.763ZM1071.14 138.361C1070.17 140.875 1070.46 141.524 1071.64 139.497C1072.22 138.493 1072.49 137.461 1072.23 137.204C1071.97 136.946 1071.48 137.467 1071.14 138.361ZM914.684 138.822C914.7 139.647 915.074 141.447 915.514 142.822C916.158 144.832 916.32 144.93 916.344 143.322C916.36 142.222 915.987 140.422 915.514 139.322C914.987 138.097 914.666 137.903 914.684 138.822ZM802.276 142.529C803.52 142.768 805.32 142.759 806.276 142.509C807.232 142.259 806.214 142.063 804.014 142.074C801.814 142.085 801.032 142.29 802.276 142.529ZM829.276 142.529C830.52 142.768 832.32 142.759 833.276 142.509C834.232 142.259 833.214 142.063 831.014 142.074C828.814 142.085 828.032 142.29 829.276 142.529ZM788.264 143.484C788.952 143.762 790.077 143.762 790.764 143.484C791.452 143.207 790.889 142.98 789.514 142.98C788.139 142.98 787.577 143.207 788.264 143.484ZM1473.51 145.46C1488.63 149.635 1496.05 159.107 1500.02 179.322C1501.46 186.655 1501.67 191.192 1501.17 203.822C1500.48 221.256 1499.09 228.413 1495.04 235.469C1487.88 247.945 1478.35 253.292 1461.36 254.371C1444.29 255.455 1427.71 250.866 1422.38 243.581C1412.78 230.459 1409.04 210.72 1411.41 185.731C1413.56 163.157 1419.99 152.652 1435.51 146.357C1443.8 142.999 1462.96 142.546 1473.51 145.46ZM781.264 144.484C781.952 144.762 783.077 144.762 783.764 144.484C784.452 144.207 783.889 143.98 782.514 143.98C781.139 143.98 780.577 144.207 781.264 144.484ZM669.438 147.572L667.014 150.322L669.764 147.898C672.334 145.632 672.973 144.822 672.188 144.822C672.009 144.822 670.772 146.059 669.438 147.572ZM773.783 145.515C774.756 145.769 776.106 145.752 776.783 145.478C777.46 145.204 776.664 144.997 775.014 145.017C773.364 145.037 772.81 145.261 773.783 145.515ZM1698.63 146.257C1715.12 147.104 1722.03 151.014 1728.06 162.916C1731.58 169.86 1732.44 178.023 1732.15 201.822C1731.92 220.827 1731.73 222.708 1729.57 227.616C1726.73 234.042 1721.15 239.047 1713.59 241.946C1709.05 243.69 1705.12 244.178 1692.41 244.582C1669.79 245.3 1661.15 243.49 1653.68 236.46C1649.4 232.443 1647.16 228.034 1645 219.404C1643.54 213.576 1643.35 209.481 1643.82 193.404C1644.12 182.909 1644.86 172.297 1645.46 169.822C1647.8 160.193 1653.36 152.473 1660.62 148.768C1664.63 146.724 1677.25 144.977 1684.51 145.463C1686.99 145.628 1693.34 145.985 1698.63 146.257ZM767.327 146.505C768.048 146.794 768.911 146.758 769.243 146.426C769.575 146.094 768.985 145.858 767.931 145.901C766.766 145.949 766.529 146.186 767.327 146.505ZM1131.14 147.361C1130.17 149.875 1130.46 150.524 1131.64 148.497C1132.22 147.493 1132.49 146.461 1132.23 146.204C1131.97 145.946 1131.48 146.467 1131.14 147.361ZM758.264 147.484C758.952 147.762 760.077 147.762 760.764 147.484C761.452 147.207 760.889 146.98 759.514 146.98C758.139 146.98 757.577 147.207 758.264 147.484ZM916.746 149.822C916.746 151.747 916.952 152.534 917.203 151.572C917.455 150.61 917.455 149.034 917.203 148.072C916.952 147.11 916.746 147.897 916.746 149.822ZM938.545 147.322C938.545 147.872 938.981 148.997 939.514 149.822C940.047 150.647 940.483 150.872 940.483 150.322C940.483 149.772 940.047 148.647 939.514 147.822C938.981 146.997 938.545 146.772 938.545 147.322ZM730.74 149.401C731.69 150.392 732.682 150.988 732.945 150.725C733.208 150.462 732.431 149.651 731.219 148.922C729.112 147.657 729.091 147.679 730.74 149.401ZM750.783 148.515C751.756 148.769 753.106 148.752 753.783 148.478C754.46 148.204 753.664 147.997 752.014 148.017C750.364 148.037 749.81 148.261 750.783 148.515ZM851.499 150.329C855.481 155.125 855.817 155.435 854.729 153.311C854.163 152.205 852.645 150.408 851.357 149.318C849.097 147.406 849.102 147.442 851.499 150.329ZM745.327 149.505C746.048 149.794 746.911 149.758 747.243 149.426C747.575 149.094 746.985 148.858 745.931 148.901C744.766 148.949 744.529 149.186 745.327 149.505ZM1065.14 155.361C1064.17 157.875 1064.46 158.524 1065.64 156.497C1066.22 155.493 1066.49 154.461 1066.23 154.204C1065.97 153.946 1065.48 154.467 1065.14 155.361ZM917.896 166.322C917.898 172.922 918.06 175.492 918.255 172.033C918.451 168.574 918.45 163.174 918.252 160.033C918.054 156.892 917.894 159.722 917.896 166.322ZM1004.59 156.405C1004.64 157.57 1004.88 157.807 1005.2 157.01C1005.49 156.288 1005.45 155.425 1005.12 155.093C1004.79 154.761 1004.55 155.351 1004.59 156.405ZM1126.97 158.889C1126.61 159.475 1126.53 160.17 1126.79 160.432C1127.05 160.694 1127.53 160.214 1127.86 159.365C1128.54 157.603 1127.96 157.293 1126.97 158.889ZM856.593 161.405C856.641 162.57 856.878 162.807 857.197 162.01C857.486 161.288 857.45 160.425 857.118 160.093C856.786 159.761 856.55 160.351 856.593 161.405ZM1007.59 165.405C1007.64 166.57 1007.88 166.807 1008.2 166.01C1008.49 165.288 1008.45 164.425 1008.12 164.093C1007.79 163.761 1007.55 164.351 1007.59 165.405ZM822.014 172.822L787.014 173.361L821.705 173.592C844.006 173.74 856.617 173.465 857.014 172.822C857.354 172.272 857.493 171.926 857.323 172.052C857.153 172.179 841.264 172.526 822.014 172.822ZM1121.14 174.361C1120.17 176.875 1120.46 177.524 1121.64 175.497C1122.22 174.493 1122.49 173.461 1122.23 173.204C1121.97 172.946 1121.48 173.467 1121.14 174.361ZM774.764 174.511C775.727 174.763 777.301 174.763 778.264 174.511C779.227 174.26 778.439 174.054 776.514 174.054C774.589 174.054 773.801 174.26 774.764 174.511ZM949.078 175.115C949.454 176.101 950.013 176.656 950.321 176.348C950.629 176.041 950.322 175.234 949.638 174.555C948.65 173.575 948.536 173.69 949.078 175.115ZM767.264 175.484C767.952 175.762 769.077 175.762 769.764 175.484C770.452 175.207 769.889 174.98 768.514 174.98C767.139 174.98 766.577 175.207 767.264 175.484ZM759.327 176.505C760.048 176.794 760.911 176.758 761.243 176.426C761.575 176.094 760.985 175.858 759.931 175.901C758.766 175.949 758.529 176.186 759.327 176.505ZM755.327 177.505C756.048 177.794 756.911 177.758 757.243 177.426C757.575 177.094 756.985 176.858 755.931 176.901C754.766 176.949 754.529 177.186 755.327 177.505ZM1057.59 177.49C1057.55 178.133 1057.25 179.483 1056.94 180.49C1056.39 182.231 1056.42 182.234 1057.51 180.534C1058.14 179.551 1058.43 178.201 1058.16 177.534C1057.81 176.659 1057.65 176.647 1057.59 177.49ZM1012.6 179.822C1012.57 180.647 1012.98 181.997 1013.51 182.822C1014.69 184.65 1014.69 183.071 1013.51 180.322C1012.95 179.003 1012.64 178.833 1012.6 179.822ZM742.514 181.822C741.689 182.355 741.464 182.791 742.014 182.791C742.564 182.791 743.689 182.355 744.514 181.822C745.339 181.289 745.564 180.853 745.014 180.853C744.464 180.853 743.339 181.289 742.514 181.822ZM952.514 184.763C952.514 185.281 952.959 185.979 953.503 186.315C954.069 186.665 954.237 186.264 953.896 185.374C953.231 183.642 952.514 183.325 952.514 184.763ZM522.264 186.545C524.052 186.767 526.976 186.767 528.764 186.545C530.552 186.324 529.089 186.142 525.514 186.142C521.939 186.142 520.476 186.324 522.264 186.545ZM533.764 186.511C534.726 186.763 536.302 186.763 537.264 186.511C538.226 186.26 537.439 186.054 535.514 186.054C533.589 186.054 532.802 186.26 533.764 186.511ZM541.764 186.511C542.726 186.763 544.302 186.763 545.264 186.511C546.226 186.26 545.439 186.054 543.514 186.054C541.589 186.054 540.802 186.26 541.764 186.511ZM548.327 186.505C549.048 186.794 549.911 186.758 550.243 186.426C550.575 186.094 549.985 185.858 548.931 185.901C547.766 185.949 547.529 186.186 548.327 186.505ZM567.794 186.558C570.423 186.765 574.473 186.762 576.794 186.553C579.115 186.343 576.964 186.174 572.014 186.177C567.064 186.18 565.165 186.352 567.794 186.558ZM588.764 186.565C593.027 186.753 600.001 186.753 604.264 186.565C608.527 186.378 605.039 186.224 596.514 186.224C587.989 186.224 584.501 186.378 588.764 186.565ZM516.672 189.822C516.672 191.197 516.899 191.76 517.176 191.072C517.454 190.385 517.454 189.26 517.176 188.572C516.899 187.885 516.672 188.447 516.672 189.822ZM620.514 189.215C620.514 189.431 621.212 189.876 622.066 190.204C622.956 190.545 623.357 190.377 623.007 189.811C622.42 188.86 620.514 188.405 620.514 189.215ZM727.46 192.572L724.014 196.322L727.764 192.876C731.254 189.668 731.974 188.822 731.21 188.822C731.043 188.822 729.356 190.51 727.46 192.572ZM954.545 189.322C954.545 189.872 954.981 190.997 955.514 191.822C956.047 192.647 956.483 192.872 956.483 192.322C956.483 191.772 956.047 190.647 955.514 189.822C954.981 188.997 954.545 188.772 954.545 189.322ZM1053.14 190.361C1052.17 192.875 1052.46 193.524 1053.64 191.497C1054.22 190.493 1054.49 189.461 1054.23 189.204C1053.97 188.946 1053.48 189.467 1053.14 190.361ZM1016.6 191.322C1016.7 193.216 1018.37 196.406 1018.43 194.822C1018.46 193.997 1018.05 192.647 1017.51 191.822C1016.98 190.997 1016.57 190.772 1016.6 191.322ZM694.6 192.322C694.704 194.216 696.37 197.406 696.428 195.822C696.459 194.997 696.047 193.647 695.514 192.822C694.981 191.997 694.569 191.772 694.6 192.322ZM631.087 196.916C632.697 198.893 634.216 200.341 634.463 200.134C634.71 199.927 633.392 198.31 631.535 196.54L628.159 193.322L631.087 196.916ZM956.545 194.322C956.545 194.872 956.981 195.997 957.514 196.822C958.047 197.647 958.483 197.872 958.483 197.322C958.483 196.772 958.047 195.647 957.514 194.822C956.981 193.997 956.545 193.772 956.545 194.322ZM516.593 196.405C516.641 197.57 516.878 197.807 517.197 197.01C517.486 196.288 517.45 195.425 517.118 195.093C516.786 194.761 516.55 195.351 516.593 196.405ZM696.593 199.405C696.641 200.57 696.878 200.807 697.197 200.01C697.486 199.288 697.45 198.425 697.118 198.093C696.786 197.761 696.55 198.351 696.593 199.405ZM721.386 199.572C720.143 201.158 720.178 201.193 721.764 199.95C723.43 198.643 723.959 197.822 723.136 197.822C722.929 197.822 722.141 198.61 721.386 199.572ZM516.948 224.322C516.947 238.072 517.088 243.836 517.261 237.13C517.433 230.425 517.434 219.175 517.262 212.13C517.09 205.086 516.948 210.572 516.948 224.322ZM1049.14 201.361C1048.17 203.875 1048.46 204.524 1049.64 202.497C1050.22 201.493 1050.49 200.461 1050.23 200.204C1049.97 199.946 1049.48 200.467 1049.14 201.361ZM635.078 203.115C635.454 204.101 636.013 204.656 636.321 204.348C636.629 204.041 636.322 203.234 635.638 202.555C634.65 201.575 634.536 201.69 635.078 203.115ZM719.078 203.529C718.536 204.954 718.65 205.069 719.638 204.089C720.322 203.41 720.629 202.603 720.321 202.296C720.013 201.988 719.454 202.543 719.078 203.529ZM698.709 207.322C698.729 208.972 698.953 209.526 699.207 208.553C699.461 207.58 699.444 206.23 699.17 205.553C698.896 204.876 698.689 205.672 698.709 207.322ZM1047.59 205.49C1047.55 206.133 1047.25 207.483 1046.94 208.49C1046.39 210.231 1046.42 210.234 1047.51 208.534C1048.14 207.551 1048.43 206.201 1048.16 205.534C1047.81 204.659 1047.65 204.647 1047.59 205.49ZM1109.14 206.361C1108.8 207.254 1108.54 208.511 1108.58 209.154C1108.61 209.796 1109.07 209.244 1109.6 207.927C1110.13 206.609 1110.38 205.353 1110.16 205.134C1109.94 204.915 1109.48 205.467 1109.14 206.361ZM637.709 211.322C637.729 212.972 637.953 213.526 638.207 212.553C638.461 211.58 638.444 210.23 638.17 209.553C637.896 208.876 637.689 209.672 637.709 211.322ZM715.085 212.393C714.718 213.859 714.61 215.251 714.845 215.487C715.081 215.722 715.575 214.716 715.943 213.251C716.31 211.785 716.418 210.393 716.183 210.157C715.947 209.922 715.453 210.928 715.085 212.393ZM699.786 216.822C699.786 219.297 699.981 220.309 700.22 219.072C700.458 217.835 700.458 215.809 700.22 214.572C699.981 213.335 699.786 214.347 699.786 216.822ZM1024.54 215.322C1024.54 215.872 1024.98 216.997 1025.51 217.822C1026.05 218.647 1026.48 218.872 1026.48 218.322C1026.48 217.772 1026.05 216.647 1025.51 215.822C1024.98 214.997 1024.54 214.772 1024.54 215.322ZM965.6 217.822C965.569 218.647 965.981 219.997 966.514 220.822C967.695 222.65 967.695 221.071 966.514 218.322C965.947 217.003 965.636 216.833 965.6 217.822ZM796.327 218.505C797.048 218.794 797.911 218.758 798.243 218.426C798.575 218.094 797.985 217.858 796.931 217.901C795.766 217.949 795.529 218.186 796.327 218.505ZM803.764 218.55C805.827 218.766 809.202 218.766 811.264 218.55C813.327 218.335 811.639 218.158 807.514 218.158C803.389 218.158 801.702 218.335 803.764 218.55ZM816.764 218.511C817.727 218.763 819.301 218.763 820.264 218.511C821.227 218.26 820.439 218.054 818.514 218.054C816.589 218.054 815.801 218.26 816.764 218.511ZM834.764 218.565C839.027 218.753 846.001 218.753 850.264 218.565C854.527 218.378 851.039 218.224 842.514 218.224C833.989 218.224 830.501 218.378 834.764 218.565ZM638.672 221.822C638.672 223.197 638.899 223.76 639.176 223.072C639.454 222.385 639.454 221.26 639.176 220.572C638.899 219.885 638.672 220.447 638.672 221.822ZM712.672 221.822C712.672 223.197 712.899 223.76 713.176 223.072C713.454 222.385 713.454 221.26 713.176 220.572C712.899 219.885 712.672 220.447 712.672 221.822ZM778.951 224.072L776.014 227.322L779.509 224.322C781.431 222.672 783.194 221.21 783.426 221.072C783.658 220.934 783.407 220.822 782.868 220.822C782.329 220.822 780.566 222.284 778.951 224.072ZM1028.54 226.322C1028.54 226.872 1028.98 227.997 1029.51 228.822C1030.05 229.647 1030.48 229.872 1030.48 229.322C1030.48 228.772 1030.05 227.647 1029.51 226.822C1028.98 225.997 1028.54 225.772 1028.54 226.322ZM1040.14 227.361C1039.17 229.875 1039.46 230.524 1040.64 228.497C1041.22 227.493 1041.49 226.461 1041.23 226.204C1040.97 225.946 1040.48 226.467 1040.14 227.361ZM711.892 239.822C711.892 246.147 712.055 248.735 712.253 245.572C712.451 242.409 712.451 237.235 712.253 234.072C712.055 230.909 711.892 233.497 711.892 239.822ZM1099.08 233.529C1098.54 234.954 1098.65 235.069 1099.64 234.089C1100.32 233.41 1100.63 232.603 1100.32 232.296C1100.01 231.988 1099.45 232.543 1099.08 233.529ZM699.8 237.322C699.808 240.072 700.002 241.078 700.232 239.558C700.461 238.038 700.455 235.788 700.218 234.558C699.981 233.328 699.793 234.572 699.8 237.322ZM773.766 238.322C773.777 240.522 773.982 241.304 774.221 240.06C774.46 238.816 774.451 237.016 774.201 236.06C773.951 235.104 773.755 236.122 773.766 238.322ZM1034.72 241.423C1034.01 242.192 1033.88 242.822 1034.42 242.822C1035.45 242.822 1036.96 240.92 1036.36 240.356C1036.17 240.173 1035.43 240.653 1034.72 241.423ZM628.951 245.072L626.014 248.322L629.264 245.385C631.052 243.77 632.514 242.307 632.514 242.135C632.514 241.362 631.689 242.043 628.951 245.072ZM975.078 243.115C975.454 244.101 976.013 244.656 976.321 244.348C976.629 244.041 976.322 243.234 975.638 242.555C974.65 241.575 974.536 241.69 975.078 243.115ZM698.593 244.405C698.641 245.57 698.878 245.807 699.197 245.01C699.486 244.288 699.45 243.425 699.118 243.093C698.786 242.761 698.55 243.351 698.593 244.405ZM854.12 245.67L852.226 248.322L854.564 246.1C855.851 244.878 856.703 243.684 856.458 243.448C856.214 243.211 855.162 244.211 854.12 245.67ZM774.514 244.763C774.514 245.281 774.959 245.979 775.503 246.315C776.069 246.665 776.237 246.264 775.896 245.374C775.231 243.642 774.514 243.325 774.514 244.763ZM697.085 250.393C696.718 251.859 696.61 253.251 696.845 253.487C697.081 253.722 697.575 252.716 697.943 251.251C698.31 249.785 698.418 248.393 698.183 248.157C697.947 247.922 697.453 248.928 697.085 250.393ZM778.514 251.322C779.806 252.697 781.088 253.822 781.363 253.822C781.638 253.822 780.806 252.697 779.514 251.322C778.222 249.947 776.94 248.822 776.665 248.822C776.39 248.822 777.222 249.947 778.514 251.322ZM978.545 252.322C978.545 252.872 978.981 253.997 979.514 254.822C980.047 255.647 980.483 255.872 980.483 255.322C980.483 254.772 980.047 253.647 979.514 252.822C978.981 251.997 978.545 251.772 978.545 252.322ZM519.327 253.505C520.048 253.794 520.911 253.758 521.243 253.426C521.575 253.094 520.985 252.858 519.931 252.901C518.766 252.949 518.529 253.186 519.327 253.505ZM532.801 253.562C535.983 253.761 540.933 253.759 543.801 253.558C546.668 253.357 544.064 253.194 538.014 253.196C531.964 253.198 529.618 253.363 532.801 253.562ZM550.264 253.484C550.952 253.762 552.077 253.762 552.764 253.484C553.452 253.207 552.889 252.98 551.514 252.98C550.139 252.98 549.577 253.207 550.264 253.484ZM556.264 253.528C557.501 253.766 559.527 253.766 560.764 253.528C562.001 253.289 560.989 253.094 558.514 253.094C556.039 253.094 555.027 253.289 556.264 253.528ZM565.764 253.538C567.277 253.767 569.751 253.767 571.264 253.538C572.777 253.309 571.539 253.122 568.514 253.122C565.489 253.122 564.251 253.309 565.764 253.538ZM577.264 253.484C577.952 253.762 579.077 253.762 579.764 253.484C580.452 253.207 579.889 252.98 578.514 252.98C577.139 252.98 576.577 253.207 577.264 253.484ZM586.29 253.555C588.642 253.767 592.242 253.764 594.29 253.549C596.338 253.334 594.414 253.161 590.014 253.165C585.614 253.168 583.938 253.344 586.29 253.555ZM599.327 253.505C600.048 253.794 600.911 253.758 601.243 253.426C601.575 253.094 600.985 252.858 599.931 252.901C598.766 252.949 598.529 253.186 599.327 253.505ZM605.276 253.529C606.52 253.768 608.32 253.759 609.276 253.509C610.232 253.259 609.214 253.063 607.014 253.074C604.814 253.085 604.032 253.29 605.276 253.529ZM784.955 256.267C786.023 257.122 787.335 257.822 787.872 257.822C789.142 257.822 788.575 257.36 785.514 255.902C783.157 254.78 783.125 254.8 784.955 256.267ZM980.545 257.322C980.545 257.872 980.981 258.997 981.514 259.822C982.047 260.647 982.483 260.872 982.483 260.322C982.483 259.772 982.047 258.647 981.514 257.822C980.981 256.997 980.545 256.772 980.545 257.322ZM694.138 259.361C693.173 261.875 693.457 262.524 694.636 260.497C695.22 259.493 695.487 258.461 695.229 258.204C694.972 257.946 694.48 258.467 694.138 259.361ZM713.593 260.405C713.641 261.57 713.878 261.807 714.197 261.01C714.486 260.288 714.45 259.425 714.118 259.093C713.786 258.761 713.55 259.351 713.593 260.405ZM801.242 259.544C803.017 259.765 806.167 259.768 808.242 259.552C810.316 259.335 808.864 259.155 805.014 259.15C801.164 259.146 799.466 259.323 801.242 259.544ZM814.327 259.505C815.048 259.794 815.911 259.758 816.243 259.426C816.575 259.094 815.985 258.858 814.931 258.901C813.766 258.949 813.529 259.186 814.327 259.505ZM1089.14 260.361C1088.17 262.875 1088.46 263.524 1089.64 261.497C1090.22 260.493 1090.49 259.461 1090.23 259.204C1089.97 258.946 1089.48 259.467 1089.14 260.361ZM982.6 262.322C982.704 264.216 984.37 267.406 984.428 265.822C984.459 264.997 984.047 263.647 983.514 262.822C982.981 261.997 982.569 261.772 982.6 262.322ZM714.545 264.322C714.545 264.872 714.981 265.997 715.514 266.822C716.047 267.647 716.483 267.872 716.483 267.322C716.483 266.772 716.047 265.647 715.514 264.822C714.981 263.997 714.545 263.772 714.545 264.322ZM690.514 267.822C689.925 268.922 689.669 269.822 689.944 269.822C690.219 269.822 690.925 268.922 691.514 267.822C692.103 266.722 692.359 265.822 692.084 265.822C691.809 265.822 691.103 266.722 690.514 267.822ZM717.078 271.115C717.454 272.101 718.013 272.656 718.321 272.348C718.629 272.041 718.322 271.234 717.638 270.555C716.65 269.575 716.536 269.69 717.078 271.115ZM683.386 278.572C682.143 280.158 682.178 280.193 683.764 278.95C685.43 277.643 685.959 276.822 685.136 276.822C684.929 276.822 684.141 277.61 683.386 278.572ZM988.545 277.322C988.545 277.872 988.981 278.997 989.514 279.822C990.047 280.647 990.483 280.872 990.483 280.322C990.483 279.772 990.047 278.647 989.514 277.822C988.981 276.997 988.545 276.772 988.545 277.322ZM722.492 280.792C723.656 282.425 725.118 284.077 725.742 284.463C726.366 284.849 725.617 283.512 724.077 281.493C720.734 277.111 719.474 276.553 722.492 280.792ZM1082.08 279.529C1081.54 280.954 1081.65 281.069 1082.64 280.089C1083.32 279.41 1083.63 278.603 1083.32 278.296C1083.01 277.988 1082.45 278.543 1082.08 279.529ZM677.438 284.572L675.014 287.322L677.764 284.898C680.334 282.632 680.973 281.822 680.188 281.822C680.009 281.822 678.772 283.059 677.438 284.572ZM858.386 286.572C857.143 288.158 857.178 288.193 858.764 286.95C860.43 285.643 860.959 284.822 860.136 284.822C859.929 284.822 859.141 285.61 858.386 286.572ZM672.386 288.572C671.143 290.158 671.178 290.193 672.764 288.95C674.43 287.643 674.959 286.822 674.136 286.822C673.929 286.822 673.141 287.61 672.386 288.572ZM730.514 289.322C731.806 290.697 733.088 291.822 733.363 291.822C733.638 291.822 732.806 290.697 731.514 289.322C730.222 287.947 728.94 286.822 728.665 286.822C728.39 286.822 729.222 287.947 730.514 289.322ZM1078.97 287.889C1078.61 288.475 1078.53 289.17 1078.79 289.432C1079.05 289.694 1079.53 289.214 1079.86 288.365C1080.54 286.603 1079.96 286.293 1078.97 287.889ZM852.386 291.572C851.143 293.158 851.178 293.193 852.764 291.95C853.727 291.195 854.514 290.407 854.514 290.2C854.514 289.377 853.693 289.906 852.386 291.572ZM739.514 295.733C740.889 296.857 742.464 297.781 743.014 297.784C744.084 297.792 742.276 296.407 739.014 294.721C737.686 294.035 737.853 294.374 739.514 295.733ZM864.672 296.822C864.672 298.197 864.899 298.76 865.176 298.072C865.454 297.385 865.454 296.26 865.176 295.572C864.899 294.885 864.672 295.447 864.672 296.822ZM842.955 297.377C841.091 298.871 841.103 298.889 843.264 297.842C844.501 297.242 845.514 296.542 845.514 296.287C845.514 295.522 844.995 295.743 842.955 297.377ZM745.247 298.946C745.926 299.63 746.733 299.937 747.04 299.629C747.348 299.321 746.793 298.762 745.807 298.386C744.382 297.844 744.267 297.958 745.247 298.946ZM837.514 299.822C836.689 300.355 836.464 300.791 837.014 300.791C837.564 300.791 838.689 300.355 839.514 299.822C840.339 299.289 840.564 298.853 840.014 298.853C839.464 298.853 838.339 299.289 837.514 299.822ZM453.514 300.445C453.514 301.032 454.34 302.259 455.349 303.173C457.033 304.697 464.007 304.812 540.099 304.572L623.014 304.31L539.821 304.066L456.627 303.822L455.071 301.599C454.215 300.377 453.514 299.857 453.514 300.445ZM752.514 301.822C753.339 302.355 754.464 302.791 755.014 302.791C755.564 302.791 755.339 302.355 754.514 301.822C753.689 301.289 752.564 300.853 752.014 300.853C751.464 300.853 751.689 301.289 752.514 301.822ZM832.514 301.822C831.689 302.355 831.464 302.791 832.014 302.791C832.564 302.791 833.689 302.355 834.514 301.822C835.339 301.289 835.564 300.853 835.014 300.853C834.464 300.853 833.339 301.289 832.514 301.822ZM867.386 303.072C868.462 304.443 870.087 304.781 874.886 304.633L881.014 304.444L875.049 304.077C871.768 303.875 868.393 303.172 867.549 302.516C866.204 301.47 866.184 301.539 867.386 303.072ZM627.764 303.511C628.726 303.763 630.302 303.763 631.264 303.511C632.226 303.26 631.439 303.054 629.514 303.054C627.589 303.054 626.802 303.26 627.764 303.511ZM883.327 304.505C884.048 304.794 884.911 304.758 885.243 304.426C885.575 304.094 884.985 303.858 883.931 303.901C882.766 303.949 882.529 304.186 883.327 304.505ZM899.298 304.56C902.203 304.763 906.703 304.761 909.298 304.556C911.892 304.35 909.514 304.185 904.014 304.187C898.514 304.19 896.392 304.358 899.298 304.56ZM819.327 305.505C820.048 305.794 820.911 305.758 821.243 305.426C821.575 305.094 820.985 304.858 819.931 304.901C818.766 304.949 818.529 305.186 819.327 305.505ZM1007.59 306.405C1007.64 307.57 1007.88 307.807 1008.2 307.01C1008.49 306.288 1008.45 305.425 1008.12 305.093C1007.79 304.761 1007.55 305.351 1007.59 306.405ZM775.778 306.54C777.298 306.769 779.548 306.763 780.778 306.526C782.008 306.289 780.764 306.101 778.014 306.108C775.264 306.116 774.258 306.31 775.778 306.54ZM811.327 306.505C812.048 306.794 812.911 306.758 813.243 306.426C813.575 306.094 812.985 305.858 811.931 305.901C810.766 305.949 810.529 306.186 811.327 306.505ZM795.264 307.484C795.952 307.762 797.077 307.762 797.764 307.484C798.452 307.207 797.889 306.98 796.514 306.98C795.139 306.98 794.577 307.207 795.264 307.484ZM1069.59 313.405C1069.64 314.57 1069.88 314.807 1070.2 314.01C1070.49 313.288 1070.45 312.425 1070.12 312.093C1069.79 311.761 1069.55 312.351 1069.59 313.405ZM1005.08 314.529C1004.54 315.954 1004.65 316.069 1005.64 315.089C1006.32 314.41 1006.63 313.603 1006.32 313.296C1006.01 312.988 1005.45 313.543 1005.08 314.529ZM1067.14 319.361C1066.17 321.875 1066.46 322.524 1067.64 320.497C1068.22 319.493 1068.49 318.461 1068.23 318.204C1067.97 317.946 1067.48 318.467 1067.14 319.361ZM999.951 322.072L997.014 325.322L1000.26 322.385C1003.29 319.647 1003.97 318.822 1003.2 318.822C1003.03 318.822 1001.57 320.284 999.951 322.072ZM1065.08 325.529C1064.54 326.954 1064.65 327.069 1065.64 326.089C1066.32 325.41 1066.63 324.603 1066.32 324.296C1066.01 323.988 1065.45 324.543 1065.08 325.529ZM993.955 326.377C992.091 327.871 992.103 327.889 994.264 326.842C995.501 326.242 996.514 325.542 996.514 325.287C996.514 324.522 995.995 324.743 993.955 326.377ZM1063.14 330.361C1062.17 332.875 1062.46 333.524 1063.64 331.497C1064.22 330.493 1064.49 329.461 1064.23 329.204C1063.97 328.946 1063.48 329.467 1063.14 330.361ZM981.327 330.505C982.048 330.794 982.911 330.758 983.243 330.426C983.575 330.094 982.985 329.858 981.931 329.901C980.766 329.949 980.529 330.186 981.327 330.505ZM972.264 331.528C973.501 331.766 975.527 331.766 976.764 331.528C978.001 331.289 976.989 331.094 974.514 331.094C972.039 331.094 971.027 331.289 972.264 331.528ZM457.072 332.729C456.763 333.227 457.412 333.4 458.513 333.112C460.848 332.501 461.143 331.822 459.073 331.822C458.28 331.822 457.38 332.23 457.072 332.729ZM475.824 332.57C483.419 332.74 495.569 332.74 502.824 332.569C510.078 332.398 503.864 332.259 489.014 332.26C474.164 332.26 468.228 332.4 475.824 332.57ZM572.327 332.505C573.048 332.794 573.911 332.758 574.243 332.426C574.575 332.094 573.985 331.858 572.931 331.901C571.766 331.949 571.529 332.186 572.327 332.505ZM589.825 332.57C597.971 332.738 611.021 332.738 618.825 332.569C626.629 332.401 619.964 332.263 604.014 332.263C588.064 332.264 581.679 332.402 589.825 332.57ZM634.327 332.505C635.048 332.794 635.911 332.758 636.243 332.426C636.575 332.094 635.985 331.858 634.931 331.901C633.766 331.949 633.529 332.186 634.327 332.505ZM643.264 332.554C645.601 332.765 649.427 332.765 651.764 332.554C654.101 332.344 652.189 332.171 647.514 332.171C642.839 332.171 640.927 332.344 643.264 332.554ZM658.264 332.528C659.501 332.766 661.527 332.766 662.764 332.528C664.001 332.289 662.989 332.094 660.514 332.094C658.039 332.094 657.027 332.289 658.264 332.528ZM674.264 332.545C676.052 332.767 678.976 332.767 680.764 332.545C682.552 332.324 681.089 332.142 677.514 332.142C673.939 332.142 672.476 332.324 674.264 332.545ZM685.327 332.505C686.048 332.794 686.911 332.758 687.243 332.426C687.575 332.094 686.985 331.858 685.931 331.901C684.766 331.949 684.529 332.186 685.327 332.505ZM761.264 332.571C774.602 332.729 796.426 332.729 809.764 332.571C823.102 332.414 812.189 332.285 785.514 332.285C758.839 332.285 747.927 332.414 761.264 332.571ZM849.794 332.558C852.423 332.765 856.473 332.762 858.794 332.553C861.115 332.343 858.964 332.174 854.014 332.177C849.064 332.18 847.165 332.352 849.794 332.558ZM893.826 332.57C902.523 332.737 916.473 332.737 924.826 332.57C933.18 332.403 926.064 332.266 909.014 332.267C891.964 332.267 885.13 332.404 893.826 332.57ZM943.264 332.545C945.051 332.767 947.977 332.767 949.764 332.545C951.551 332.324 950.089 332.142 946.514 332.142C942.939 332.142 941.477 332.324 943.264 332.545ZM1057.66 343.572C1056.57 346.122 1056.59 346.181 1058 344.381C1058.83 343.313 1059.51 342.076 1059.51 341.631C1059.51 340.111 1058.84 340.821 1057.66 343.572ZM1039.39 366.572C1038.14 368.158 1038.18 368.193 1039.76 366.95C1040.73 366.195 1041.51 365.407 1041.51 365.2C1041.51 364.377 1040.69 364.906 1039.39 366.572ZM1022.51 375.822C1021.69 376.355 1021.46 376.791 1022.01 376.791C1022.56 376.791 1023.69 376.355 1024.51 375.822C1025.34 375.289 1025.56 374.853 1025.01 374.853C1024.46 374.853 1023.34 375.289 1022.51 375.822ZM1016.01 377.822C1014.69 378.389 1014.52 378.7 1015.51 378.736C1016.34 378.767 1017.69 378.355 1018.51 377.822C1020.34 376.641 1018.76 376.641 1016.01 377.822ZM1008.33 380.505C1009.05 380.794 1009.91 380.758 1010.24 380.426C1010.57 380.094 1009.99 379.858 1008.93 379.901C1007.77 379.949 1007.53 380.186 1008.33 380.505ZM1000.76 381.511C1001.73 381.763 1003.3 381.763 1004.26 381.511C1005.23 381.26 1004.44 381.054 1002.51 381.054C1000.59 381.054 999.801 381.26 1000.76 381.511ZM992.276 382.529C993.52 382.768 995.32 382.759 996.276 382.509C997.232 382.259 996.214 382.063 994.014 382.074C991.814 382.085 991.032 382.29 992.276 382.529ZM589.845 383.572C662.351 383.714 780.701 383.714 852.845 383.572C924.988 383.43 865.664 383.315 721.014 383.315C576.364 383.315 517.338 383.43 589.845 383.572Z" fill="url(#paint1_linear_8_95)"/>
</g>
</g>
<g clip-path="url(#clip2_8_95)">
<path d="M60.5995 319.409C60.5995 321.853 62.5798 323.833 65.0228 323.833H259.207C261.65 323.833 263.63 325.814 263.63 328.257V356.129V379.576C263.63 382.019 261.65 384 259.207 384H4.42332C1.98039 384 0 382.019 0 379.576V112.365C0 109.922 1.98039 107.941 4.42332 107.941H29.5623H56.1762C58.6192 107.941 60.5995 109.922 60.5995 112.365V319.409Z" fill="url(#paint2_linear_8_95)"/>
<path d="M318.037 23C335.137 23 349 36.8649 349 53.9681V192.791C349 193.363 348.889 193.929 348.674 194.458L344.376 205.026C343.938 206.103 343.941 207.31 344.386 208.385L348.664 218.725C348.886 219.261 349 219.836 349 220.416V353.032C349 370.135 335.137 384 318.037 384H293.633C291.19 384 289.21 382.019 289.21 379.576V233.195L289.215 232.218H235.81C233.349 232.218 231.361 230.209 231.387 227.747L231.911 178.568C231.937 176.143 233.91 174.191 236.334 174.191H289.356L289.217 86.8076C289.213 84.3673 287.233 82.3911 284.793 82.3911H4.42332C1.98044 82.3911 7.29445e-05 80.4105 0 77.9671V27.424C2.62236e-06 24.9807 1.98039 23 4.42332 23H318.037Z" fill="url(#paint3_linear_8_95)"/>
</g>
<defs>
<linearGradient id="paint0_linear_8_95" x1="452.514" y1="24.8215" x2="1145.01" y2="383.822" gradientUnits="userSpaceOnUse">
<stop stop-color="#4F6D7A"/>
<stop offset="0.526752" stop-color="#4E6873"/>
<stop offset="1" stop-color="#3D4143"/>
</linearGradient>
<linearGradient id="paint1_linear_8_95" x1="1166.51" y1="383.822" x2="1867.01" y2="-0.17855" gradientUnits="userSpaceOnUse">
<stop stop-color="#432512"/>
<stop offset="0.485577" stop-color="#784728"/>
<stop offset="1" stop-color="#E59C6F"/>
</linearGradient>
<linearGradient id="paint2_linear_8_95" x1="3.981" y1="110.596" x2="263.673" y2="383.959" gradientUnits="userSpaceOnUse">
<stop stop-color="#E59C6F"/>
<stop offset="0.491217" stop-color="#784728"/>
<stop offset="1" stop-color="#432512"/>
</linearGradient>
<linearGradient id="paint3_linear_8_95" x1="0" y1="23" x2="344.633" y2="378.637" gradientUnits="userSpaceOnUse">
<stop stop-color="#4F6D7A"/>
<stop offset="0.480689" stop-color="#4E6873"/>
<stop offset="1" stop-color="#3D4143"/>
</linearGradient>
<clipPath id="clip0_8_95">
<rect width="2035" height="384" fill="white" transform="translate(409)"/>
</clipPath>
<clipPath id="clip1_8_95">
<rect width="2035" height="384" fill="white" transform="translate(453)"/>
</clipPath>
<clipPath id="clip2_8_95">
<rect width="349" height="361" fill="white" transform="translate(0 23)"/>
</clipPath>
</defs>
</svg>
