<svg width="789" height="816" viewBox="0 0 789 816" fill="none" xmlns="http://www.w3.org/2000/svg">
<path d="M137 670C137 675.523 141.477 680 147 680H586C591.523 680 596 684.477 596 690V753V806C596 811.523 591.523 816 586 816H10C4.47715 816 0 811.523 0 806V202C0 196.477 4.47715 192 10 192H66.8329H127C132.523 192 137 196.477 137 202V670Z" fill="url(#paint0_linear_7_69)"/>
<path d="M719 0C757.66 0 789 31.3401 789 70V383.794C789 385.086 788.749 386.365 788.263 387.562L778.546 411.449C777.555 413.884 777.563 416.612 778.568 419.041L788.24 442.414C788.742 443.626 789 444.925 789 446.237V746C789 784.66 757.66 816 719 816H663.829C658.306 816 653.829 811.523 653.829 806V475.123L653.842 472.914H533.107C527.543 472.914 523.048 468.372 523.107 462.808L524.292 351.644C524.351 346.163 528.811 341.75 534.292 341.75H654.16L653.845 144.23C653.836 138.714 649.361 134.247 643.845 134.247H10C4.47726 134.247 0.000164909 129.77 0 124.247V10C5.92849e-06 4.47716 4.47716 0 10 0H719Z" fill="url(#paint1_linear_7_69)"/>
<defs>
<linearGradient id="paint0_linear_7_69" x1="9.00001" y1="198" x2="596" y2="816" gradientUnits="userSpaceOnUse">
<stop stop-color="#E59C6F"/>
<stop offset="0.491217" stop-color="#784728"/>
<stop offset="1" stop-color="#432512"/>
</linearGradient>
<linearGradient id="paint1_linear_7_69" x1="0" y1="0" x2="779" y2="804" gradientUnits="userSpaceOnUse">
<stop stop-color="#4F6D7A"/>
<stop offset="0.480689" stop-color="#4E6873"/>
<stop offset="1" stop-color="#3D4143"/>
</linearGradient>
</defs>
</svg>
